solid voronoi cube platform
facet normal 0.08311270874459672 0.9965401535538526 0.0
  outer loop
    vertex -33.26137331909667 44.52083168238263 0.49999999999999906
    vertex -30.659881486341263 44.303863974432105 0.0
    vertex -33.26137331909667 44.52083168238263 0.0
  endloop
endfacet
facet normal 0.08311270874459672 0.9965401535538526 0.0
  outer loop
    vertex -30.659881486341263 44.303863974432105 0.0
    vertex -33.26137331909667 44.52083168238263 0.49999999999999906
    vertex -30.659881486341263 44.303863974432105 0.49999999999999906
  endloop
endfacet
facet normal -0.9965401535538525 0.08311270874459599 0.0
  outer loop
    vertex -42.556306372676936 36.65696428084557 0.49999999999999906
    vertex -42.77327408062746 34.055472448090185 0.0
    vertex -42.77327408062746 34.055472448090185 0.49999999999999906
  endloop
endfacet
facet normal -0.9965401535538525 0.08311270874459599 0.0
  outer loop
    vertex -42.77327408062746 34.055472448090185 0.0
    vertex -42.556306372676936 36.65696428084557 0.49999999999999906
    vertex -42.556306372676936 36.65696428084557 0.0
  endloop
endfacet
facet normal -0.6087614290087207 -0.7933533402912354 -0.0
  outer loop
    vertex -37.78464408271585 -44.12805235337334 0.49999999999999906
    vertex -39.855711894581326 -42.53886612739441 0.0
    vertex -37.78464408271585 -44.12805235337334 0.0
  endloop
endfacet
facet normal -0.6087614290087207 -0.7933533402912354 -0.0
  outer loop
    vertex -39.855711894581326 -42.53886612739441 0.0
    vertex -37.78464408271585 -44.12805235337334 0.49999999999999906
    vertex -39.855711894581326 -42.53886612739441 0.49999999999999906
  endloop
endfacet
facet normal -0.9410727193385796 0.3382042828183744 0.0
  outer loop
    vertex -41.673416028101016 39.11365705399428 0.49999999999999906
    vertex -42.556306372676936 36.65696428084557 0.0
    vertex -42.556306372676936 36.65696428084557 0.49999999999999906
  endloop
endfacet
facet normal -0.9410727193385796 0.3382042828183744 0.0
  outer loop
    vertex -42.556306372676936 36.65696428084557 0.0
    vertex -41.673416028101016 39.11365705399428 0.49999999999999906
    vertex -41.673416028101016 39.11365705399428 0.0
  endloop
endfacet
facet normal 0.9818743337786502 0.18953309121821482 0.0
  outer loop
    vertex 46.70270821771678 37.692920958224214 0.0
    vertex 47.19748887164498 35.12971459768964 0.49999999999999906
    vertex 47.19748887164498 35.12971459768964 0.0
  endloop
endfacet
facet normal 0.9818743337786502 0.18953309121821482 0.0
  outer loop
    vertex 47.19748887164498 35.12971459768964 0.49999999999999906
    vertex 46.70270821771678 37.692920958224214 0.0
    vertex 46.70270821771678 37.692920958224214 0.49999999999999906
  endloop
endfacet
facet normal 0.0 0.0 1.0
  outer loop
    vertex -32.78464408271585 -35.46779831552896 4.999999999999999
    vertex -29.78464408271585 -32.46779831552897 4.999999999999999
    vertex -32.78464408271585 34.532201684471 4.999999999999999
  endloop
endfacet
facet normal 0.0 0.0 1.0
  outer loop
    vertex -29.78464408271585 -32.46779831552897 4.999999999999999
    vertex -32.78464408271585 -35.46779831552896 4.999999999999999
    vertex 37.215355917284114 -35.46779831552896 4.999999999999999
  endloop
endfacet
facet normal 0.0 0.0 1.0
  outer loop
    vertex -29.78464408271585 -32.46779831552897 4.999999999999999
    vertex 37.215355917284114 -35.46779831552896 4.999999999999999
    vertex 34.21535591728414 -32.46779831552897 4.999999999999999
  endloop
endfacet
facet normal 0.0 0.0 1.0
  outer loop
    vertex 34.21535591728414 -32.46779831552897 4.999999999999999
    vertex 37.215355917284114 -35.46779831552896 4.999999999999999
    vertex 34.21535591728414 31.53220168447101 4.999999999999999
  endloop
endfacet
facet normal 0.0 0.0 1.0
  outer loop
    vertex -32.78464408271585 34.532201684471 4.999999999999999
    vertex -29.78464408271585 31.53220168447101 4.999999999999999
    vertex 37.215355917284114 34.532201684471 4.999999999999999
  endloop
endfacet
facet normal 0.0 0.0 1.0
  outer loop
    vertex -29.78464408271585 31.53220168447101 4.999999999999999
    vertex -32.78464408271585 34.532201684471 4.999999999999999
    vertex -29.78464408271585 -32.46779831552897 4.999999999999999
  endloop
endfacet
facet normal 0.0 0.0 1.0
  outer loop
    vertex 37.215355917284114 34.532201684471 4.999999999999999
    vertex -29.78464408271585 31.53220168447101 4.999999999999999
    vertex 34.21535591728414 31.53220168447101 4.999999999999999
  endloop
endfacet
facet normal 0.0 0.0 1.0
  outer loop
    vertex 37.215355917284114 34.532201684471 4.999999999999999
    vertex 34.21535591728414 31.53220168447101 4.999999999999999
    vertex 37.215355917284114 -35.46779831552896 4.999999999999999
  endloop
endfacet
facet normal -0.6458907403465262 0.7634298602586989 0.0
  outer loop
    vertex -40.18477056483729 41.258131214922926 0.49999999999999906
    vertex -38.1918187111042 42.94424439347536 0.0
    vertex -40.18477056483729 41.258131214922926 0.0
  endloop
endfacet
facet normal -0.6458907403465262 0.7634298602586989 0.0
  outer loop
    vertex -38.1918187111042 42.94424439347536 0.0
    vertex -40.18477056483729 41.258131214922926 0.49999999999999906
    vertex -38.1918187111042 42.94424439347536 0.49999999999999906
  endloop
endfacet
facet normal 0.828310133747555 -0.5602698656282591 0.0
  outer loop
    vertex 46.15889309632376 30.058596569227177 0.0
    vertex 44.69629525280181 27.896273214520182 0.49999999999999906
    vertex 44.69629525280181 27.896273214520182 0.0
  endloop
endfacet
facet normal 0.828310133747555 -0.5602698656282591 0.0
  outer loop
    vertex 44.69629525280181 27.896273214520182 0.49999999999999906
    vertex 46.15889309632376 30.058596569227177 0.0
    vertex 46.15889309632376 30.058596569227177 0.49999999999999906
  endloop
endfacet
facet normal -0.7634298602586976 -0.6458907403465276 -0.0
  outer loop
    vertex -41.196686791720204 29.125027056082654 0.49999999999999906
    vertex -39.51057361316776 27.13207520234956 0.0
    vertex -39.51057361316776 27.13207520234956 0.49999999999999906
  endloop
endfacet
facet normal -0.7634298602586976 -0.6458907403465276 -0.0
  outer loop
    vertex -39.51057361316776 27.13207520234956 0.0
    vertex -41.196686791720204 29.125027056082654 0.49999999999999906
    vertex -41.196686791720204 29.125027056082654 0.0
  endloop
endfacet
facet normal -0.4735977024584756 -0.8807412879081198 -0.0
  outer loop
    vertex 33.66949389909146 -44.81803160395222 0.49999999999999906
    vertex 31.370297766258833 -43.58169350903081 0.0
    vertex 33.66949389909146 -44.81803160395222 0.0
  endloop
endfacet
facet normal -0.4735977024584756 -0.8807412879081198 -0.0
  outer loop
    vertex 31.370297766258833 -43.58169350903081 0.0
    vertex 33.66949389909146 -44.81803160395222 0.49999999999999906
    vertex 31.370297766258833 -43.58169350903081 0.49999999999999906
  endloop
endfacet
facet normal 0.945094661985339 -0.3267966950365597 0.0
  outer loop
    vertex 47.01200366098814 32.52578871955603 0.0
    vertex 46.15889309632376 30.058596569227177 0.49999999999999906
    vertex 46.15889309632376 30.058596569227177 0.0
  endloop
endfacet
facet normal 0.945094661985339 -0.3267966950365597 0.0
  outer loop
    vertex 46.15889309632376 30.058596569227177 0.49999999999999906
    vertex 47.01200366098814 32.52578871955603 0.0
    vertex 47.01200366098814 32.52578871955603 0.49999999999999906
  endloop
endfacet
facet normal -0.7933533402912343 0.6087614290087221 0.0
  outer loop
    vertex -39.855711894581326 -28.396730503663466 0.49999999999999906
    vertex -41.44489812056024 -30.467798315528924 0.0
    vertex -41.44489812056024 -30.467798315528924 0.49999999999999906
  endloop
endfacet
facet normal -0.7933533402912343 0.6087614290087221 0.0
  outer loop
    vertex -41.44489812056024 -30.467798315528924 0.0
    vertex -39.855711894581326 -28.396730503663466 0.49999999999999906
    vertex -39.855711894581326 -28.396730503663466 0.0
  endloop
endfacet
facet normal 0.7555615707671255 0.6550776387420914 0.0
  outer loop
    vertex 43.851284387234955 42.0131410199887 0.0
    vertex 45.561380183105115 40.04072952358802 0.49999999999999906
    vertex 45.561380183105115 40.04072952358802 0.0
  endloop
endfacet
facet normal 0.7555615707671255 0.6550776387420914 0.0
  outer loop
    vertex 45.561380183105115 40.04072952358802 0.49999999999999906
    vertex 43.851284387234955 42.0131410199887 0.0
    vertex 43.851284387234955 42.0131410199887 0.49999999999999906
  endloop
endfacet
facet normal 0.6854128711945493 0.7281546511565 0.0
  outer loop
    vertex 43.06041406830939 -27.35390312202706 0.49999999999999906
    vertex 44.96127914756496 -29.14318976553978 0.0
    vertex 43.06041406830939 -27.35390312202706 0.0
  endloop
endfacet
facet normal 0.6854128711945493 0.7281546511565 0.0
  outer loop
    vertex 44.96127914756496 -29.14318976553978 0.0
    vertex 43.06041406830939 -27.35390312202706 0.49999999999999906
    vertex 44.96127914756496 -29.14318976553978 0.49999999999999906
  endloop
endfacet
facet normal 0.0 -1.0 0.0
  outer loop
    vertex 34.21535591728414 31.53220168447101 4.999999999999999
    vertex -29.78464408271585 31.53220168447101 0.4999999999999963
    vertex 34.21535591728414 31.53220168447101 0.4999999999999963
  endloop
endfacet
facet normal 0.0 -1.0 0.0
  outer loop
    vertex -29.78464408271585 31.53220168447101 0.4999999999999963
    vertex 34.21535591728414 31.53220168447101 4.999999999999999
    vertex -29.78464408271585 31.53220168447101 4.999999999999999
  endloop
endfacet
facet normal 0.07105286973518928 0.9974725508515982 0.0
  outer loop
    vertex 36.61784300406547 44.51433463883187 0.49999999999999906
    vertex 39.221768882199086 44.32884942817503 0.0
    vertex 36.61784300406547 44.51433463883187 0.0
  endloop
endfacet
facet normal 0.07105286973518928 0.9974725508515982 0.0
  outer loop
    vertex 39.221768882199086 44.32884942817503 0.0
    vertex 36.61784300406547 44.51433463883187 0.49999999999999906
    vertex 39.221768882199086 44.32884942817503 0.49999999999999906
  endloop
endfacet
facet normal 0.9995431807194937 0.030223002451077986 0.0
  outer loop
    vertex 47.08582648546591 -33.86348825738647 0.0
    vertex 47.16472435401384 -36.47281956416321 0.49999999999999906
    vertex 47.16472435401384 -36.47281956416321 0.0
  endloop
endfacet
facet normal 0.9995431807194937 0.030223002451077986 0.0
  outer loop
    vertex 47.16472435401384 -36.47281956416321 0.49999999999999906
    vertex 47.08582648546591 -33.86348825738647 0.0
    vertex 47.08582648546591 -33.86348825738647 0.49999999999999906
  endloop
endfacet
facet normal 0.8993630034827444 0.43720268522333783 0.0
  outer loop
    vertex 45.561380183105115 40.04072952358802 0.0
    vertex 46.70270821771678 37.692920958224214 0.49999999999999906
    vertex 46.70270821771678 37.692920958224214 0.0
  endloop
endfacet
facet normal 0.8993630034827444 0.43720268522333783 0.0
  outer loop
    vertex 46.70270821771678 37.692920958224214 0.49999999999999906
    vertex 45.561380183105115 40.04072952358802 0.0
    vertex 45.561380183105115 40.04072952358802 0.49999999999999906
  endloop
endfacet
facet normal -4.30028587311449e-33 2.8995101188277714e-32 1.0
  outer loop
    vertex -30.196453631690634 -45.12705657841961 0.49999999999999906
    vertex -32.78464408271585 -35.46779831552896 0.49999999999999906
    vertex -32.78464408271585 -45.467798315528945 0.49999999999999906
  endloop
endfacet
facet normal -4.30028587311449e-33 2.8995101188277714e-32 1.0
  outer loop
    vertex -32.78464408271585 -35.46779831552896 0.49999999999999906
    vertex -30.196453631690634 -45.12705657841961 0.49999999999999906
    vertex -24.124390044871454 -40.46779831552891 0.49999999999999906
  endloop
endfacet
facet normal -4.30028587311449e-33 2.8995101188277714e-32 1.0
  outer loop
    vertex -32.78464408271585 -35.46779831552896 0.49999999999999906
    vertex -24.124390044871454 -40.46779831552891 0.49999999999999906
    vertex 37.215355917284114 -35.46779831552896 0.49999999999999906
  endloop
endfacet
facet normal -4.30028587311449e-33 2.8995101188277714e-32 1.0
  outer loop
    vertex -24.124390044871454 -40.46779831552891 0.49999999999999906
    vertex -30.196453631690634 -45.12705657841961 0.49999999999999906
    vertex -27.784644082715843 -44.12805235337334 0.49999999999999906
  endloop
endfacet
facet normal -4.30028587311449e-33 2.8995101188277714e-32 1.0
  outer loop
    vertex -24.124390044871454 -40.46779831552891 0.49999999999999906
    vertex -27.784644082715843 -44.12805235337334 0.49999999999999906
    vertex -25.713576270850368 -42.53886612739441 0.49999999999999906
  endloop
endfacet
facet normal -4.30028587311449e-33 2.8995101188277714e-32 1.0
  outer loop
    vertex 37.215355917284114 -35.46779831552896 0.49999999999999906
    vertex -24.124390044871454 -40.46779831552891 0.49999999999999906
    vertex 29.46943268700329 -41.792406865518046 0.49999999999999906
  endloop
endfacet
facet normal -4.30028587311449e-33 2.8995101188277714e-32 1.0
  outer loop
    vertex 37.215355917284114 -35.46779831552896 0.49999999999999906
    vertex 29.46943268700329 -41.792406865518046 0.49999999999999906
    vertex 31.370297766258833 -43.58169350903081 0.49999999999999906
  endloop
endfacet
facet normal -4.30028587311449e-33 2.8995101188277714e-32 1.0
  outer loop
    vertex 37.215355917284114 -35.46779831552896 0.49999999999999906
    vertex 31.370297766258833 -43.58169350903081 0.49999999999999906
    vertex 33.66949389909146 -44.81803160395222 0.49999999999999906
  endloop
endfacet
facet normal -4.30028587311449e-33 2.8995101188277714e-32 1.0
  outer loop
    vertex 37.215355917284114 -35.46779831552896 0.49999999999999906
    vertex 33.66949389909146 -44.81803160395222 0.49999999999999906
    vertex 36.210334668649864 -45.41716675225868 0.49999999999999906
  endloop
endfacet
facet normal -4.30028587311449e-33 2.8995101188277714e-32 1.0
  outer loop
    vertex 37.215355917284114 -35.46779831552896 0.49999999999999906
    vertex 36.210334668649864 -45.41716675225868 0.49999999999999906
    vertex 38.81966597542655 -45.33826888371071 0.49999999999999906
  endloop
endfacet
facet normal -4.30028587311449e-33 2.8995101188277714e-32 1.0
  outer loop
    vertex 37.215355917284114 -35.46779831552896 0.49999999999999906
    vertex 38.81966597542655 -45.33826888371071 0.49999999999999906
    vertex 37.215355917284114 34.532201684471 0.49999999999999906
  endloop
endfacet
facet normal -4.30028587311449e-33 2.8995101188277714e-32 1.0
  outer loop
    vertex 42.723883756401136 26.186177418650022 0.49999999999999906
    vertex 43.851284387234955 42.0131410199887 0.49999999999999906
    vertex 41.68896103252795 43.47573886351065 0.49999999999999906
  endloop
endfacet
facet normal -4.30028587311449e-33 2.8995101188277714e-32 1.0
  outer loop
    vertex 43.851284387234955 42.0131410199887 0.49999999999999906
    vertex 42.723883756401136 26.186177418650022 0.49999999999999906
    vertex 44.69629525280181 27.896273214520182 0.49999999999999906
  endloop
endfacet
facet normal -4.30028587311449e-33 2.8995101188277714e-32 1.0
  outer loop
    vertex 43.851284387234955 42.0131410199887 0.49999999999999906
    vertex 44.69629525280181 27.896273214520182 0.49999999999999906
    vertex 45.561380183105115 40.04072952358802 0.49999999999999906
  endloop
endfacet
facet normal -4.30028587311449e-33 2.8995101188277714e-32 1.0
  outer loop
    vertex 45.561380183105115 40.04072952358802 0.49999999999999906
    vertex 44.69629525280181 27.896273214520182 0.49999999999999906
    vertex 46.15889309632376 30.058596569227177 0.49999999999999906
  endloop
endfacet
facet normal -4.30028587311449e-33 2.8995101188277714e-32 1.0
  outer loop
    vertex 45.561380183105115 40.04072952358802 0.49999999999999906
    vertex 46.15889309632376 30.058596569227177 0.49999999999999906
    vertex 46.70270821771678 37.692920958224214 0.49999999999999906
  endloop
endfacet
facet normal -4.30028587311449e-33 2.8995101188277714e-32 1.0
  outer loop
    vertex 46.70270821771678 37.692920958224214 0.49999999999999906
    vertex 46.15889309632376 30.058596569227177 0.49999999999999906
    vertex 47.01200366098814 32.52578871955603 0.49999999999999906
  endloop
endfacet
facet normal -4.30028587311449e-33 2.8995101188277714e-32 1.0
  outer loop
    vertex 46.70270821771678 37.692920958224214 0.49999999999999906
    vertex 47.01200366098814 32.52578871955603 0.49999999999999906
    vertex 47.19748887164498 35.12971459768964 0.49999999999999906
  endloop
endfacet
facet normal -4.30028587311449e-33 2.8995101188277714e-32 1.0
  outer loop
    vertex -42.44390234560654 -38.055988766554165 0.49999999999999906
    vertex -42.44390234560654 -32.87960786450371 0.49999999999999906
    vertex -42.78464408271586 -35.46779831552896 0.49999999999999906
  endloop
endfacet
facet normal -4.30028587311449e-33 2.8995101188277714e-32 1.0
  outer loop
    vertex -42.44390234560654 -32.87960786450371 0.49999999999999906
    vertex -42.44390234560654 -38.055988766554165 0.49999999999999906
    vertex -41.44489812056024 -40.46779831552895 0.49999999999999906
  endloop
endfacet
facet normal -4.30028587311449e-33 2.8995101188277714e-32 1.0
  outer loop
    vertex -42.44390234560654 -32.87960786450371 0.49999999999999906
    vertex -41.44489812056024 -40.46779831552895 0.49999999999999906
    vertex -41.44489812056024 -30.467798315528924 0.49999999999999906
  endloop
endfacet
facet normal -4.30028587311449e-33 2.8995101188277714e-32 1.0
  outer loop
    vertex -41.44489812056024 -30.467798315528924 0.49999999999999906
    vertex -41.44489812056024 -40.46779831552895 0.49999999999999906
    vertex -39.855711894581326 -42.53886612739441 0.49999999999999906
  endloop
endfacet
facet normal -4.30028587311449e-33 2.8995101188277714e-32 1.0
  outer loop
    vertex -41.44489812056024 -30.467798315528924 0.49999999999999906
    vertex -39.855711894581326 -42.53886612739441 0.49999999999999906
    vertex -39.855711894581326 -28.396730503663466 0.49999999999999906
  endloop
endfacet
facet normal -4.30028587311449e-33 2.8995101188277714e-32 1.0
  outer loop
    vertex -39.855711894581326 -28.396730503663466 0.49999999999999906
    vertex -39.855711894581326 -42.53886612739441 0.49999999999999906
    vertex -37.78464408271585 -44.12805235337334 0.49999999999999906
  endloop
endfacet
facet normal -4.30028587311449e-33 2.8995101188277714e-32 1.0
  outer loop
    vertex -39.855711894581326 -28.396730503663466 0.49999999999999906
    vertex -37.78464408271585 -44.12805235337334 0.49999999999999906
    vertex -37.78464408271586 -26.807544277684535 0.49999999999999906
  endloop
endfacet
facet normal -4.30028587311449e-33 2.8995101188277714e-32 1.0
  outer loop
    vertex -37.78464408271586 -26.807544277684535 0.49999999999999906
    vertex -37.78464408271585 -44.12805235337334 0.49999999999999906
    vertex -37.36609945223911 25.64342973908585 0.49999999999999906
  endloop
endfacet
facet normal -4.30028587311449e-33 2.8995101188277714e-32 1.0
  outer loop
    vertex -37.36609945223911 25.64342973908585 0.49999999999999906
    vertex -37.78464408271585 -44.12805235337334 0.49999999999999906
    vertex -35.37283453374106 -45.12705657841961 0.49999999999999906
  endloop
endfacet
facet normal -4.30028587311449e-33 2.8995101188277714e-32 1.0
  outer loop
    vertex -37.36609945223911 25.64342973908585 0.49999999999999906
    vertex -35.37283453374106 -45.12705657841961 0.49999999999999906
    vertex -35.83037684222502 44.057090762967015 0.49999999999999906
  endloop
endfacet
facet normal -4.30028587311449e-33 2.8995101188277714e-32 1.0
  outer loop
    vertex -35.83037684222502 44.057090762967015 0.49999999999999906
    vertex -35.37283453374106 -45.12705657841961 0.49999999999999906
    vertex -33.26137331909667 44.52083168238263 0.49999999999999906
  endloop
endfacet
facet normal -4.30028587311449e-33 2.8995101188277714e-32 1.0
  outer loop
    vertex -33.26137331909667 44.52083168238263 0.49999999999999906
    vertex -35.37283453374106 -45.12705657841961 0.49999999999999906
    vertex -32.78464408271585 -45.467798315528945 0.49999999999999906
  endloop
endfacet
facet normal -4.30028587311449e-33 2.8995101188277714e-32 1.0
  outer loop
    vertex -33.26137331909667 44.52083168238263 0.49999999999999906
    vertex -32.78464408271585 -45.467798315528945 0.49999999999999906
    vertex -32.78464408271585 34.532201684471 0.49999999999999906
  endloop
endfacet
facet normal -4.30028587311449e-33 2.8995101188277714e-32 1.0
  outer loop
    vertex -33.26137331909667 44.52083168238263 0.49999999999999906
    vertex -32.78464408271585 34.532201684471 0.49999999999999906
    vertex -30.659881486341263 44.303863974432105 0.49999999999999906
  endloop
endfacet
facet normal -4.30028587311449e-33 2.8995101188277714e-32 1.0
  outer loop
    vertex -32.78464408271585 34.532201684471 0.49999999999999906
    vertex -32.78464408271585 -45.467798315528945 0.49999999999999906
    vertex -32.78464408271585 -35.46779831552896 0.49999999999999906
  endloop
endfacet
facet normal -4.30028587311449e-33 2.8995101188277714e-32 1.0
  outer loop
    vertex -30.659881486341263 44.303863974432105 0.49999999999999906
    vertex -32.78464408271585 34.532201684471 0.49999999999999906
    vertex -24.372601373711497 39.93937631285935 0.49999999999999906
  endloop
endfacet
facet normal -4.30028587311449e-33 2.8995101188277714e-32 1.0
  outer loop
    vertex -24.372601373711497 39.93937631285935 0.49999999999999906
    vertex -32.78464408271585 34.532201684471 0.49999999999999906
    vertex 37.215355917284114 34.532201684471 0.49999999999999906
  endloop
endfacet
facet normal -4.30028587311449e-33 2.8995101188277714e-32 1.0
  outer loop
    vertex -30.659881486341263 44.303863974432105 0.49999999999999906
    vertex -24.372601373711497 39.93937631285935 0.49999999999999906
    vertex -28.203188713192585 43.42097362985618 0.49999999999999906
  endloop
endfacet
facet normal -4.30028587311449e-33 2.8995101188277714e-32 1.0
  outer loop
    vertex -28.203188713192585 43.42097362985618 0.49999999999999906
    vertex -24.372601373711497 39.93937631285935 0.49999999999999906
    vertex -26.05871455226394 41.93232816659244 0.49999999999999906
  endloop
endfacet
facet normal -4.30028587311449e-33 2.8995101188277714e-32 1.0
  outer loop
    vertex -24.372601373711497 39.93937631285935 0.49999999999999906
    vertex 37.215355917284114 34.532201684471 0.49999999999999906
    vertex 29.734416581766414 41.168130154421846 0.49999999999999906
  endloop
endfacet
facet normal -4.30028587311449e-33 2.8995101188277714e-32 1.0
  outer loop
    vertex 29.734416581766414 41.168130154421846 0.49999999999999906
    vertex 37.215355917284114 34.532201684471 0.49999999999999906
    vertex 31.706828078167092 42.878225950292006 0.49999999999999906
  endloop
endfacet
facet normal -4.30028587311449e-33 2.8995101188277714e-32 1.0
  outer loop
    vertex 31.706828078167092 42.878225950292006 0.49999999999999906
    vertex 37.215355917284114 34.532201684471 0.49999999999999906
    vertex 34.05463664353093 44.019553984903695 0.49999999999999906
  endloop
endfacet
facet normal -4.30028587311449e-33 2.8995101188277714e-32 1.0
  outer loop
    vertex 34.05463664353093 44.019553984903695 0.49999999999999906
    vertex 37.215355917284114 34.532201684471 0.49999999999999906
    vertex 36.61784300406547 44.51433463883187 0.49999999999999906
  endloop
endfacet
facet normal -4.30028587311449e-33 2.8995101188277714e-32 1.0
  outer loop
    vertex 36.61784300406547 44.51433463883187 0.49999999999999906
    vertex 37.215355917284114 34.532201684471 0.49999999999999906
    vertex 39.221768882199086 44.32884942817503 0.49999999999999906
  endloop
endfacet
facet normal -4.30028587311449e-33 2.8995101188277714e-32 1.0
  outer loop
    vertex 39.221768882199086 44.32884942817503 0.49999999999999906
    vertex 37.215355917284114 34.532201684471 0.49999999999999906
    vertex 38.81966597542655 -45.33826888371071 0.49999999999999906
  endloop
endfacet
facet normal -4.30028587311449e-33 2.8995101188277714e-32 1.0
  outer loop
    vertex 39.221768882199086 44.32884942817503 0.49999999999999906
    vertex 38.81966597542655 -45.33826888371071 0.49999999999999906
    vertex 41.319666202988564 -44.586714757665064 0.49999999999999906
  endloop
endfacet
facet normal -4.30028587311449e-33 2.8995101188277714e-32 1.0
  outer loop
    vertex 39.221768882199086 44.32884942817503 0.49999999999999906
    vertex 41.319666202988564 -44.586714757665064 0.49999999999999906
    vertex 41.68896103252795 43.47573886351065 0.49999999999999906
  endloop
endfacet
facet normal -4.30028587311449e-33 2.8995101188277714e-32 1.0
  outer loop
    vertex 41.68896103252795 43.47573886351065 0.49999999999999906
    vertex 41.319666202988564 -44.586714757665064 0.49999999999999906
    vertex 43.06041406830939 -27.35390312202706 0.49999999999999906
  endloop
endfacet
facet normal -4.30028587311449e-33 2.8995101188277714e-32 1.0
  outer loop
    vertex 43.06041406830939 -27.35390312202706 0.49999999999999906
    vertex 41.319666202988564 -44.586714757665064 0.49999999999999906
    vertex 43.53996446727326 -43.21372154580978 0.49999999999999906
  endloop
endfacet
facet normal -4.30028587311449e-33 2.8995101188277714e-32 1.0
  outer loop
    vertex 41.68896103252795 43.47573886351065 0.49999999999999906
    vertex 43.06041406830939 -27.35390312202706 0.49999999999999906
    vertex 42.723883756401136 26.186177418650022 0.49999999999999906
  endloop
endfacet
facet normal -4.30028587311449e-33 2.8995101188277714e-32 1.0
  outer loop
    vertex 43.06041406830939 -27.35390312202706 0.49999999999999906
    vertex 43.53996446727326 -43.21372154580978 0.49999999999999906
    vertex 44.96127914756496 -29.14318976553978 0.49999999999999906
  endloop
endfacet
facet normal -4.30028587311449e-33 2.8995101188277714e-32 1.0
  outer loop
    vertex 44.96127914756496 -29.14318976553978 0.49999999999999906
    vertex 43.53996446727326 -43.21372154580978 0.49999999999999906
    vertex 45.329251110786004 -41.312856466554216 0.49999999999999906
  endloop
endfacet
facet normal -4.30028587311449e-33 2.8995101188277714e-32 1.0
  outer loop
    vertex 44.96127914756496 -29.14318976553978 0.49999999999999906
    vertex 45.329251110786004 -41.312856466554216 0.49999999999999906
    vertex 46.33427235942025 -31.363488029824502 0.49999999999999906
  endloop
endfacet
facet normal -4.30028587311449e-33 2.8995101188277714e-32 1.0
  outer loop
    vertex 46.33427235942025 -31.363488029824502 0.49999999999999906
    vertex 45.329251110786004 -41.312856466554216 0.49999999999999906
    vertex 46.5655892057074 -39.01366033372158 0.49999999999999906
  endloop
endfacet
facet normal -4.30028587311449e-33 2.8995101188277714e-32 1.0
  outer loop
    vertex 46.33427235942025 -31.363488029824502 0.49999999999999906
    vertex 46.5655892057074 -39.01366033372158 0.49999999999999906
    vertex 47.08582648546591 -33.86348825738647 0.49999999999999906
  endloop
endfacet
facet normal -4.30028587311449e-33 2.8995101188277714e-32 1.0
  outer loop
    vertex 47.08582648546591 -33.86348825738647 0.49999999999999906
    vertex 46.5655892057074 -39.01366033372158 0.49999999999999906
    vertex 47.16472435401384 -36.47281956416321 0.49999999999999906
  endloop
endfacet
facet normal -4.30028587311449e-33 2.8995101188277714e-32 1.0
  outer loop
    vertex -42.30953316121186 31.486468924961823 0.49999999999999906
    vertex -42.556306372676936 36.65696428084557 0.49999999999999906
    vertex -42.77327408062746 34.055472448090185 0.49999999999999906
  endloop
endfacet
facet normal -4.30028587311449e-33 2.8995101188277714e-32 1.0
  outer loop
    vertex -42.556306372676936 36.65696428084557 0.49999999999999906
    vertex -42.30953316121186 31.486468924961823 0.49999999999999906
    vertex -41.673416028101016 39.11365705399428 0.49999999999999906
  endloop
endfacet
facet normal -4.30028587311449e-33 2.8995101188277714e-32 1.0
  outer loop
    vertex -41.673416028101016 39.11365705399428 0.49999999999999906
    vertex -42.30953316121186 31.486468924961823 0.49999999999999906
    vertex -41.196686791720204 29.125027056082654 0.49999999999999906
  endloop
endfacet
facet normal -4.30028587311449e-33 2.8995101188277714e-32 1.0
  outer loop
    vertex -41.673416028101016 39.11365705399428 0.49999999999999906
    vertex -41.196686791720204 29.125027056082654 0.49999999999999906
    vertex -40.18477056483729 41.258131214922926 0.49999999999999906
  endloop
endfacet
facet normal -4.30028587311449e-33 2.8995101188277714e-32 1.0
  outer loop
    vertex -40.18477056483729 41.258131214922926 0.49999999999999906
    vertex -41.196686791720204 29.125027056082654 0.49999999999999906
    vertex -39.51057361316776 27.13207520234956 0.49999999999999906
  endloop
endfacet
facet normal -4.30028587311449e-33 2.8995101188277714e-32 1.0
  outer loop
    vertex -40.18477056483729 41.258131214922926 0.49999999999999906
    vertex -39.51057361316776 27.13207520234956 0.49999999999999906
    vertex -38.1918187111042 42.94424439347536 0.49999999999999906
  endloop
endfacet
facet normal -4.30028587311449e-33 2.8995101188277714e-32 1.0
  outer loop
    vertex -38.1918187111042 42.94424439347536 0.49999999999999906
    vertex -39.51057361316776 27.13207520234956 0.49999999999999906
    vertex -37.36609945223911 25.64342973908585 0.49999999999999906
  endloop
endfacet
facet normal -4.30028587311449e-33 2.8995101188277714e-32 1.0
  outer loop
    vertex -38.1918187111042 42.94424439347536 0.49999999999999906
    vertex -37.36609945223911 25.64342973908585 0.49999999999999906
    vertex -35.83037684222502 44.057090762967015 0.49999999999999906
  endloop
endfacet
facet normal -0.18953309121821413 0.9818743337786502 0.0
  outer loop
    vertex 34.05463664353093 44.019553984903695 0.49999999999999906
    vertex 36.61784300406547 44.51433463883187 0.0
    vertex 34.05463664353093 44.019553984903695 0.0
  endloop
endfacet
facet normal -0.18953309121821413 0.9818743337786502 0.0
  outer loop
    vertex 36.61784300406547 44.51433463883187 0.0
    vertex 34.05463664353093 44.019553984903695 0.49999999999999906
    vertex 36.61784300406547 44.51433463883187 0.49999999999999906
  endloop
endfacet
facet normal 0.728154651156499 -0.6854128711945504 0.0
  outer loop
    vertex 45.329251110786004 -41.312856466554216 0.0
    vertex 43.53996446727326 -43.21372154580978 0.49999999999999906
    vertex 43.53996446727326 -43.21372154580978 0.0
  endloop
endfacet
facet normal 0.728154651156499 -0.6854128711945504 0.0
  outer loop
    vertex 43.53996446727326 -43.21372154580978 0.49999999999999906
    vertex 45.329251110786004 -41.312856466554216 0.0
    vertex 45.329251110786004 -41.312856466554216 0.49999999999999906
  endloop
endfacet
facet normal -0.9238795325112873 0.3826834323650887 0.0
  outer loop
    vertex -41.44489812056024 -30.467798315528924 0.49999999999999906
    vertex -42.44390234560654 -32.87960786450371 0.0
    vertex -42.44390234560654 -32.87960786450371 0.49999999999999906
  endloop
endfacet
facet normal -0.9238795325112873 0.3826834323650887 0.0
  outer loop
    vertex -42.44390234560654 -32.87960786450371 0.0
    vertex -41.44489812056024 -30.467798315528924 0.49999999999999906
    vertex -41.44489812056024 -30.467798315528924 0.0
  endloop
endfacet
facet normal -0.655077638742092 0.7555615707671249 0.0
  outer loop
    vertex 29.734416581766414 41.168130154421846 0.49999999999999906
    vertex 31.706828078167092 42.878225950292006 0.0
    vertex 29.734416581766414 41.168130154421846 0.0
  endloop
endfacet
facet normal -0.655077638742092 0.7555615707671249 0.0
  outer loop
    vertex 31.706828078167092 42.878225950292006 0.0
    vertex 29.734416581766414 41.168130154421846 0.49999999999999906
    vertex 31.706828078167092 42.878225950292006 0.49999999999999906
  endloop
endfacet
facet normal -0.9840950231649004 -0.1776428590798809 -0.0
  outer loop
    vertex -42.77327408062746 34.055472448090185 0.49999999999999906
    vertex -42.30953316121186 31.486468924961823 0.0
    vertex -42.30953316121186 31.486468924961823 0.49999999999999906
  endloop
endfacet
facet normal -0.9840950231649004 -0.1776428590798809 -0.0
  outer loop
    vertex -42.30953316121186 31.486468924961823 0.0
    vertex -42.77327408062746 34.055472448090185 0.49999999999999906
    vertex -42.77327408062746 34.055472448090185 0.0
  endloop
endfacet
facet normal 0.7933533402912365 -0.6087614290087189 0.0
  outer loop
    vertex -24.124390044871454 -40.46779831552891 0.0
    vertex -25.713576270850368 -42.53886612739441 0.49999999999999906
    vertex -25.713576270850368 -42.53886612739441 0.0
  endloop
endfacet
facet normal 0.7933533402912365 -0.6087614290087189 0.0
  outer loop
    vertex -25.713576270850368 -42.53886612739441 0.49999999999999906
    vertex -24.124390044871454 -40.46779831552891 0.0
    vertex -24.124390044871454 -40.46779831552891 0.49999999999999906
  endloop
endfacet
facet normal 0.7634298602586994 0.6458907403465256 0.0
  outer loop
    vertex -26.05871455226394 41.93232816659244 0.0
    vertex -24.372601373711497 39.93937631285935 0.49999999999999906
    vertex -24.372601373711497 39.93937631285935 0.0
  endloop
endfacet
facet normal 0.7634298602586994 0.6458907403465256 0.0
  outer loop
    vertex -24.372601373711497 39.93937631285935 0.49999999999999906
    vertex -26.05871455226394 41.93232816659244 0.0
    vertex -26.05871455226394 41.93232816659244 0.49999999999999906
  endloop
endfacet
facet normal -0.024708148978451437 -0.9996947070851475 -0.0
  outer loop
    vertex 29.46943268700329 -41.792406865518046 0.49999999999999906
    vertex -24.124390044871454 -40.46779831552891 0.0
    vertex 29.46943268700329 -41.792406865518046 0.0
  endloop
endfacet
facet normal -0.024708148978451437 -0.9996947070851475 -0.0
  outer loop
    vertex -24.124390044871454 -40.46779831552891 0.0
    vertex 29.46943268700329 -41.792406865518046 0.49999999999999906
    vertex -24.124390044871454 -40.46779831552891 0.49999999999999906
  endloop
endfacet
facet normal -0.1776428590798811 0.9840950231649004 0.0
  outer loop
    vertex -35.83037684222502 44.057090762967015 0.49999999999999906
    vertex -33.26137331909667 44.52083168238263 0.0
    vertex -35.83037684222502 44.057090762967015 0.0
  endloop
endfacet
facet normal -0.1776428590798811 0.9840950231649004 0.0
  outer loop
    vertex -33.26137331909667 44.52083168238263 0.0
    vertex -35.83037684222502 44.057090762967015 0.49999999999999906
    vertex -33.26137331909667 44.52083168238263 0.49999999999999906
  endloop
endfacet
facet normal -0.9914448613738106 -0.13052619222005132 -0.0
  outer loop
    vertex -42.78464408271586 -35.46779831552896 0.49999999999999906
    vertex -42.44390234560654 -38.055988766554165 0.0
    vertex -42.44390234560654 -38.055988766554165 0.49999999999999906
  endloop
endfacet
facet normal -0.9914448613738106 -0.13052619222005132 -0.0
  outer loop
    vertex -42.44390234560654 -38.055988766554165 0.0
    vertex -42.78464408271586 -35.46779831552896 0.49999999999999906
    vertex -42.78464408271586 -35.46779831552896 0.0
  endloop
endfacet
facet normal -0.6854128711945504 -0.728154651156499 -0.0
  outer loop
    vertex 31.370297766258833 -43.58169350903081 0.49999999999999906
    vertex 29.46943268700329 -41.792406865518046 0.0
    vertex 31.370297766258833 -43.58169350903081 0.0
  endloop
endfacet
facet normal -0.6854128711945504 -0.728154651156499 -0.0
  outer loop
    vertex 29.46943268700329 -41.792406865518046 0.0
    vertex 31.370297766258833 -43.58169350903081 0.49999999999999906
    vertex 29.46943268700329 -41.792406865518046 0.49999999999999906
  endloop
endfacet
facet normal 0.3826834323650895 -0.923879532511287 0.0
  outer loop
    vertex -27.784644082715843 -44.12805235337334 0.49999999999999906
    vertex -30.196453631690634 -45.12705657841961 0.0
    vertex -27.784644082715843 -44.12805235337334 0.0
  endloop
endfacet
facet normal 0.3826834323650895 -0.923879532511287 0.0
  outer loop
    vertex -30.196453631690634 -45.12705657841961 0.0
    vertex -27.784644082715843 -44.12805235337334 0.49999999999999906
    vertex -30.196453631690634 -45.12705657841961 0.49999999999999906
  endloop
endfacet
facet normal -7.885475363654323e-33 3.624363379590547e-32 -1.0
  outer loop
    vertex -42.556306372676936 36.65696428084557 0.0
    vertex -42.30953316121186 31.486468924961823 0.0
    vertex -42.77327408062746 34.055472448090185 0.0
  endloop
endfacet
facet normal -7.885475363654323e-33 3.624363379590547e-32 -1.0
  outer loop
    vertex -42.30953316121186 31.486468924961823 0.0
    vertex -42.556306372676936 36.65696428084557 0.0
    vertex -41.673416028101016 39.11365705399428 0.0
  endloop
endfacet
facet normal -7.885475363654323e-33 3.624363379590547e-32 -1.0
  outer loop
    vertex -42.30953316121186 31.486468924961823 0.0
    vertex -41.673416028101016 39.11365705399428 0.0
    vertex -41.196686791720204 29.125027056082654 0.0
  endloop
endfacet
facet normal -7.885475363654323e-33 3.624363379590547e-32 -1.0
  outer loop
    vertex -41.196686791720204 29.125027056082654 0.0
    vertex -41.673416028101016 39.11365705399428 0.0
    vertex -40.18477056483729 41.258131214922926 0.0
  endloop
endfacet
facet normal -7.885475363654323e-33 3.624363379590547e-32 -1.0
  outer loop
    vertex -41.196686791720204 29.125027056082654 0.0
    vertex -40.18477056483729 41.258131214922926 0.0
    vertex -39.51057361316776 27.13207520234956 0.0
  endloop
endfacet
facet normal -7.885475363654323e-33 3.624363379590547e-32 -1.0
  outer loop
    vertex -39.51057361316776 27.13207520234956 0.0
    vertex -40.18477056483729 41.258131214922926 0.0
    vertex -38.1918187111042 42.94424439347536 0.0
  endloop
endfacet
facet normal -7.885475363654323e-33 3.624363379590547e-32 -1.0
  outer loop
    vertex -39.51057361316776 27.13207520234956 0.0
    vertex -38.1918187111042 42.94424439347536 0.0
    vertex -37.36609945223911 25.64342973908585 0.0
  endloop
endfacet
facet normal -7.885475363654323e-33 3.624363379590547e-32 -1.0
  outer loop
    vertex -37.36609945223911 25.64342973908585 0.0
    vertex -38.1918187111042 42.94424439347536 0.0
    vertex -35.83037684222502 44.057090762967015 0.0
  endloop
endfacet
facet normal -7.885475363654323e-33 3.624363379590547e-32 -1.0
  outer loop
    vertex 43.851284387234955 42.0131410199887 0.0
    vertex 42.723883756401136 26.186177418650022 0.0
    vertex 41.68896103252795 43.47573886351065 0.0
  endloop
endfacet
facet normal -7.885475363654323e-33 3.624363379590547e-32 -1.0
  outer loop
    vertex 42.723883756401136 26.186177418650022 0.0
    vertex 43.851284387234955 42.0131410199887 0.0
    vertex 44.69629525280181 27.896273214520182 0.0
  endloop
endfacet
facet normal -7.885475363654323e-33 3.624363379590547e-32 -1.0
  outer loop
    vertex 44.69629525280181 27.896273214520182 0.0
    vertex 43.851284387234955 42.0131410199887 0.0
    vertex 45.561380183105115 40.04072952358802 0.0
  endloop
endfacet
facet normal -7.885475363654323e-33 3.624363379590547e-32 -1.0
  outer loop
    vertex 44.69629525280181 27.896273214520182 0.0
    vertex 45.561380183105115 40.04072952358802 0.0
    vertex 46.15889309632376 30.058596569227177 0.0
  endloop
endfacet
facet normal -7.885475363654323e-33 3.624363379590547e-32 -1.0
  outer loop
    vertex 46.15889309632376 30.058596569227177 0.0
    vertex 45.561380183105115 40.04072952358802 0.0
    vertex 46.70270821771678 37.692920958224214 0.0
  endloop
endfacet
facet normal -7.885475363654323e-33 3.624363379590547e-32 -1.0
  outer loop
    vertex 46.15889309632376 30.058596569227177 0.0
    vertex 46.70270821771678 37.692920958224214 0.0
    vertex 47.01200366098814 32.52578871955603 0.0
  endloop
endfacet
facet normal -7.885475363654323e-33 3.624363379590547e-32 -1.0
  outer loop
    vertex 47.01200366098814 32.52578871955603 0.0
    vertex 46.70270821771678 37.692920958224214 0.0
    vertex 47.19748887164498 35.12971459768964 0.0
  endloop
endfacet
facet normal -7.885475363654323e-33 3.624363379590547e-32 -1.0
  outer loop
    vertex -42.44390234560654 -32.87960786450371 0.0
    vertex -42.44390234560654 -38.055988766554165 0.0
    vertex -42.78464408271586 -35.46779831552896 0.0
  endloop
endfacet
facet normal -7.885475363654323e-33 3.624363379590547e-32 -1.0
  outer loop
    vertex -42.44390234560654 -38.055988766554165 0.0
    vertex -42.44390234560654 -32.87960786450371 0.0
    vertex -41.44489812056024 -30.467798315528924 0.0
  endloop
endfacet
facet normal -7.885475363654323e-33 3.624363379590547e-32 -1.0
  outer loop
    vertex -42.44390234560654 -38.055988766554165 0.0
    vertex -41.44489812056024 -30.467798315528924 0.0
    vertex -41.44489812056024 -40.46779831552895 0.0
  endloop
endfacet
facet normal -7.885475363654323e-33 3.624363379590547e-32 -1.0
  outer loop
    vertex -41.44489812056024 -40.46779831552895 0.0
    vertex -41.44489812056024 -30.467798315528924 0.0
    vertex -39.855711894581326 -28.396730503663466 0.0
  endloop
endfacet
facet normal -7.885475363654323e-33 3.624363379590547e-32 -1.0
  outer loop
    vertex -41.44489812056024 -40.46779831552895 0.0
    vertex -39.855711894581326 -28.396730503663466 0.0
    vertex -39.855711894581326 -42.53886612739441 0.0
  endloop
endfacet
facet normal -7.885475363654323e-33 3.624363379590547e-32 -1.0
  outer loop
    vertex -39.855711894581326 -42.53886612739441 0.0
    vertex -39.855711894581326 -28.396730503663466 0.0
    vertex -37.78464408271586 -26.807544277684535 0.0
  endloop
endfacet
facet normal -7.885475363654323e-33 3.624363379590547e-32 -1.0
  outer loop
    vertex -39.855711894581326 -42.53886612739441 0.0
    vertex -37.78464408271586 -26.807544277684535 0.0
    vertex -37.78464408271585 -44.12805235337334 0.0
  endloop
endfacet
facet normal -7.885475363654323e-33 3.624363379590547e-32 -1.0
  outer loop
    vertex -37.78464408271585 -44.12805235337334 0.0
    vertex -37.78464408271586 -26.807544277684535 0.0
    vertex -37.36609945223911 25.64342973908585 0.0
  endloop
endfacet
facet normal -7.885475363654323e-33 3.624363379590547e-32 -1.0
  outer loop
    vertex -37.78464408271585 -44.12805235337334 0.0
    vertex -37.36609945223911 25.64342973908585 0.0
    vertex -35.37283453374106 -45.12705657841961 0.0
  endloop
endfacet
facet normal -7.885475363654323e-33 3.624363379590547e-32 -1.0
  outer loop
    vertex -35.37283453374106 -45.12705657841961 0.0
    vertex -37.36609945223911 25.64342973908585 0.0
    vertex -35.83037684222502 44.057090762967015 0.0
  endloop
endfacet
facet normal -7.885475363654323e-33 3.624363379590547e-32 -1.0
  outer loop
    vertex -35.37283453374106 -45.12705657841961 0.0
    vertex -35.83037684222502 44.057090762967015 0.0
    vertex -33.26137331909667 44.52083168238263 0.0
  endloop
endfacet
facet normal -7.885475363654323e-33 3.624363379590547e-32 -1.0
  outer loop
    vertex -35.37283453374106 -45.12705657841961 0.0
    vertex -33.26137331909667 44.52083168238263 0.0
    vertex -32.78464408271585 -45.467798315528945 0.0
  endloop
endfacet
facet normal -7.885475363654323e-33 3.624363379590547e-32 -1.0
  outer loop
    vertex -32.78464408271585 -45.467798315528945 0.0
    vertex -33.26137331909667 44.52083168238263 0.0
    vertex -30.659881486341263 44.303863974432105 0.0
  endloop
endfacet
facet normal -7.885475363654323e-33 3.624363379590547e-32 -1.0
  outer loop
    vertex -32.78464408271585 -45.467798315528945 0.0
    vertex -30.659881486341263 44.303863974432105 0.0
    vertex -30.196453631690634 -45.12705657841961 0.0
  endloop
endfacet
facet normal -7.885475363654323e-33 3.624363379590547e-32 -1.0
  outer loop
    vertex -30.196453631690634 -45.12705657841961 0.0
    vertex -30.659881486341263 44.303863974432105 0.0
    vertex -28.203188713192585 43.42097362985618 0.0
  endloop
endfacet
facet normal -7.885475363654323e-33 3.624363379590547e-32 -1.0
  outer loop
    vertex -30.196453631690634 -45.12705657841961 0.0
    vertex -28.203188713192585 43.42097362985618 0.0
    vertex -27.784644082715843 -44.12805235337334 0.0
  endloop
endfacet
facet normal -7.885475363654323e-33 3.624363379590547e-32 -1.0
  outer loop
    vertex -27.784644082715843 -44.12805235337334 0.0
    vertex -28.203188713192585 43.42097362985618 0.0
    vertex -26.05871455226394 41.93232816659244 0.0
  endloop
endfacet
facet normal -7.885475363654323e-33 3.624363379590547e-32 -1.0
  outer loop
    vertex -27.784644082715843 -44.12805235337334 0.0
    vertex -26.05871455226394 41.93232816659244 0.0
    vertex -25.713576270850368 -42.53886612739441 0.0
  endloop
endfacet
facet normal -7.885475363654323e-33 3.624363379590547e-32 -1.0
  outer loop
    vertex -25.713576270850368 -42.53886612739441 0.0
    vertex -26.05871455226394 41.93232816659244 0.0
    vertex -24.372601373711497 39.93937631285935 0.0
  endloop
endfacet
facet normal -7.885475363654323e-33 3.624363379590547e-32 -1.0
  outer loop
    vertex -25.713576270850368 -42.53886612739441 0.0
    vertex -24.372601373711497 39.93937631285935 0.0
    vertex -24.124390044871454 -40.46779831552891 0.0
  endloop
endfacet
facet normal -7.885475363654323e-33 3.624363379590547e-32 -1.0
  outer loop
    vertex -24.124390044871454 -40.46779831552891 0.0
    vertex -24.372601373711497 39.93937631285935 0.0
    vertex 29.734416581766414 41.168130154421846 0.0
  endloop
endfacet
facet normal -7.885475363654323e-33 3.624363379590547e-32 -1.0
  outer loop
    vertex -24.124390044871454 -40.46779831552891 0.0
    vertex 29.734416581766414 41.168130154421846 0.0
    vertex 29.46943268700329 -41.792406865518046 0.0
  endloop
endfacet
facet normal -7.885475363654323e-33 3.624363379590547e-32 -1.0
  outer loop
    vertex 29.46943268700329 -41.792406865518046 0.0
    vertex 29.734416581766414 41.168130154421846 0.0
    vertex 31.370297766258833 -43.58169350903081 0.0
  endloop
endfacet
facet normal -7.885475363654323e-33 3.624363379590547e-32 -1.0
  outer loop
    vertex 31.370297766258833 -43.58169350903081 0.0
    vertex 29.734416581766414 41.168130154421846 0.0
    vertex 31.706828078167092 42.878225950292006 0.0
  endloop
endfacet
facet normal -7.885475363654323e-33 3.624363379590547e-32 -1.0
  outer loop
    vertex 31.370297766258833 -43.58169350903081 0.0
    vertex 31.706828078167092 42.878225950292006 0.0
    vertex 33.66949389909146 -44.81803160395222 0.0
  endloop
endfacet
facet normal -7.885475363654323e-33 3.624363379590547e-32 -1.0
  outer loop
    vertex 33.66949389909146 -44.81803160395222 0.0
    vertex 31.706828078167092 42.878225950292006 0.0
    vertex 34.05463664353093 44.019553984903695 0.0
  endloop
endfacet
facet normal -7.885475363654323e-33 3.624363379590547e-32 -1.0
  outer loop
    vertex 33.66949389909146 -44.81803160395222 0.0
    vertex 34.05463664353093 44.019553984903695 0.0
    vertex 36.210334668649864 -45.41716675225868 0.0
  endloop
endfacet
facet normal -7.885475363654323e-33 3.624363379590547e-32 -1.0
  outer loop
    vertex 36.210334668649864 -45.41716675225868 0.0
    vertex 34.05463664353093 44.019553984903695 0.0
    vertex 36.61784300406547 44.51433463883187 0.0
  endloop
endfacet
facet normal -7.885475363654323e-33 3.624363379590547e-32 -1.0
  outer loop
    vertex 36.210334668649864 -45.41716675225868 0.0
    vertex 36.61784300406547 44.51433463883187 0.0
    vertex 38.81966597542655 -45.33826888371071 0.0
  endloop
endfacet
facet normal -7.885475363654323e-33 3.624363379590547e-32 -1.0
  outer loop
    vertex 38.81966597542655 -45.33826888371071 0.0
    vertex 36.61784300406547 44.51433463883187 0.0
    vertex 39.221768882199086 44.32884942817503 0.0
  endloop
endfacet
facet normal -7.885475363654323e-33 3.624363379590547e-32 -1.0
  outer loop
    vertex 38.81966597542655 -45.33826888371071 0.0
    vertex 39.221768882199086 44.32884942817503 0.0
    vertex 41.319666202988564 -44.586714757665064 0.0
  endloop
endfacet
facet normal -7.885475363654323e-33 3.624363379590547e-32 -1.0
  outer loop
    vertex 41.319666202988564 -44.586714757665064 0.0
    vertex 39.221768882199086 44.32884942817503 0.0
    vertex 41.68896103252795 43.47573886351065 0.0
  endloop
endfacet
facet normal -7.885475363654323e-33 3.624363379590547e-32 -1.0
  outer loop
    vertex 41.319666202988564 -44.586714757665064 0.0
    vertex 41.68896103252795 43.47573886351065 0.0
    vertex 43.06041406830939 -27.35390312202706 0.0
  endloop
endfacet
facet normal -7.885475363654323e-33 3.624363379590547e-32 -1.0
  outer loop
    vertex 41.319666202988564 -44.586714757665064 0.0
    vertex 43.06041406830939 -27.35390312202706 0.0
    vertex 43.53996446727326 -43.21372154580978 0.0
  endloop
endfacet
facet normal -7.885475363654323e-33 3.624363379590547e-32 -1.0
  outer loop
    vertex 43.06041406830939 -27.35390312202706 0.0
    vertex 41.68896103252795 43.47573886351065 0.0
    vertex 42.723883756401136 26.186177418650022 0.0
  endloop
endfacet
facet normal -7.885475363654323e-33 3.624363379590547e-32 -1.0
  outer loop
    vertex 43.53996446727326 -43.21372154580978 0.0
    vertex 43.06041406830939 -27.35390312202706 0.0
    vertex 44.96127914756496 -29.14318976553978 0.0
  endloop
endfacet
facet normal -7.885475363654323e-33 3.624363379590547e-32 -1.0
  outer loop
    vertex 43.53996446727326 -43.21372154580978 0.0
    vertex 44.96127914756496 -29.14318976553978 0.0
    vertex 45.329251110786004 -41.312856466554216 0.0
  endloop
endfacet
facet normal -7.885475363654323e-33 3.624363379590547e-32 -1.0
  outer loop
    vertex 45.329251110786004 -41.312856466554216 0.0
    vertex 44.96127914756496 -29.14318976553978 0.0
    vertex 46.33427235942025 -31.363488029824502 0.0
  endloop
endfacet
facet normal -7.885475363654323e-33 3.624363379590547e-32 -1.0
  outer loop
    vertex 45.329251110786004 -41.312856466554216 0.0
    vertex 46.33427235942025 -31.363488029824502 0.0
    vertex 46.5655892057074 -39.01366033372158 0.0
  endloop
endfacet
facet normal -7.885475363654323e-33 3.624363379590547e-32 -1.0
  outer loop
    vertex 46.5655892057074 -39.01366033372158 0.0
    vertex 46.33427235942025 -31.363488029824502 0.0
    vertex 47.08582648546591 -33.86348825738647 0.0
  endloop
endfacet
facet normal -7.885475363654323e-33 3.624363379590547e-32 -1.0
  outer loop
    vertex 46.5655892057074 -39.01366033372158 0.0
    vertex 47.08582648546591 -33.86348825738647 0.0
    vertex 47.16472435401384 -36.47281956416321 0.0
  endloop
endfacet
facet normal 0.2878939901880462 -0.9576622841135622 0.0
  outer loop
    vertex 41.319666202988564 -44.586714757665064 0.49999999999999906
    vertex 38.81966597542655 -45.33826888371071 0.0
    vertex 41.319666202988564 -44.586714757665064 0.0
  endloop
endfacet
facet normal 0.2878939901880462 -0.9576622841135622 0.0
  outer loop
    vertex 38.81966597542655 -45.33826888371071 0.0
    vertex 41.319666202988564 -44.586714757665064 0.49999999999999906
    vertex 38.81966597542655 -45.33826888371071 0.49999999999999906
  endloop
endfacet
facet normal -0.6087614290087231 0.7933533402912335 0.0
  outer loop
    vertex -39.855711894581326 -28.396730503663466 0.49999999999999906
    vertex -37.78464408271586 -26.807544277684535 0.0
    vertex -39.855711894581326 -28.396730503663466 0.0
  endloop
endfacet
facet normal -0.6087614290087231 0.7933533402912335 0.0
  outer loop
    vertex -37.78464408271586 -26.807544277684535 0.0
    vertex -39.855711894581326 -28.396730503663466 0.49999999999999906
    vertex -37.78464408271586 -26.807544277684535 0.49999999999999906
  endloop
endfacet
facet normal -0.9914448613738104 0.13052619222005188 0.0
  outer loop
    vertex -42.44390234560654 -32.87960786450371 0.49999999999999906
    vertex -42.78464408271586 -35.46779831552896 0.0
    vertex -42.78464408271586 -35.46779831552896 0.49999999999999906
  endloop
endfacet
facet normal -0.9914448613738104 0.13052619222005188 0.0
  outer loop
    vertex -42.78464408271586 -35.46779831552896 0.0
    vertex -42.44390234560654 -32.87960786450371 0.49999999999999906
    vertex -42.44390234560654 -32.87960786450371 0.0
  endloop
endfacet
facet normal 0.13052619222005132 -0.9914448613738106 0.0
  outer loop
    vertex -30.196453631690634 -45.12705657841961 0.49999999999999906
    vertex -32.78464408271585 -45.467798315528945 0.0
    vertex -30.196453631690634 -45.12705657841961 0.0
  endloop
endfacet
facet normal 0.13052619222005132 -0.9914448613738106 0.0
  outer loop
    vertex -32.78464408271585 -45.467798315528945 0.0
    vertex -30.196453631690634 -45.12705657841961 0.49999999999999906
    vertex -32.78464408271585 -45.467798315528945 0.49999999999999906
  endloop
endfacet
facet normal -0.7933533402912349 -0.608761429008721 -0.0
  outer loop
    vertex -41.44489812056024 -40.46779831552895 0.49999999999999906
    vertex -39.855711894581326 -42.53886612739441 0.0
    vertex -39.855711894581326 -42.53886612739441 0.49999999999999906
  endloop
endfacet
facet normal -0.7933533402912349 -0.608761429008721 -0.0
  outer loop
    vertex -39.855711894581326 -42.53886612739441 0.0
    vertex -41.44489812056024 -40.46779831552895 0.49999999999999906
    vertex -41.44489812056024 -40.46779831552895 0.0
  endloop
endfacet
facet normal 0.8807412879081211 -0.47359770245847294 0.0
  outer loop
    vertex 46.5655892057074 -39.01366033372158 0.0
    vertex 45.329251110786004 -41.312856466554216 0.49999999999999906
    vertex 45.329251110786004 -41.312856466554216 0.0
  endloop
endfacet
facet normal 0.8807412879081211 -0.47359770245847294 0.0
  outer loop
    vertex 45.329251110786004 -41.312856466554216 0.49999999999999906
    vertex 46.5655892057074 -39.01366033372158 0.0
    vertex 46.5655892057074 -39.01366033372158 0.49999999999999906
  endloop
endfacet
facet normal -1.0 0.0 0.0
  outer loop
    vertex -32.78464408271585 34.532201684471 4.999999999999999
    vertex -32.78464408271585 -35.46779831552896 0.49999999999999906
    vertex -32.78464408271585 -35.46779831552896 4.999999999999999
  endloop
endfacet
facet normal -1.0 0.0 0.0
  outer loop
    vertex -32.78464408271585 -35.46779831552896 0.49999999999999906
    vertex -32.78464408271585 34.532201684471 4.999999999999999
    vertex -32.78464408271585 34.532201684471 0.49999999999999906
  endloop
endfacet
facet normal 0.957662284113561 0.2878939901880501 0.0
  outer loop
    vertex 46.33427235942025 -31.363488029824502 0.0
    vertex 47.08582648546591 -33.86348825738647 0.49999999999999906
    vertex 47.08582648546591 -33.86348825738647 0.0
  endloop
endfacet
facet normal 0.957662284113561 0.2878939901880501 0.0
  outer loop
    vertex 47.08582648546591 -33.86348825738647 0.49999999999999906
    vertex 46.33427235942025 -31.363488029824502 0.0
    vertex 46.33427235942025 -31.363488029824502 0.49999999999999906
  endloop
endfacet
facet normal -0.9238795325112866 -0.3826834323650902 -0.0
  outer loop
    vertex -42.44390234560654 -38.055988766554165 0.49999999999999906
    vertex -41.44489812056024 -40.46779831552895 0.0
    vertex -41.44489812056024 -40.46779831552895 0.49999999999999906
  endloop
endfacet
facet normal -0.9238795325112866 -0.3826834323650902 -0.0
  outer loop
    vertex -41.44489812056024 -40.46779831552895 0.0
    vertex -42.44390234560654 -38.055988766554165 0.49999999999999906
    vertex -42.44390234560654 -38.055988766554165 0.0
  endloop
endfacet
facet normal 0.0 0.0 1.0
  outer loop
    vertex -32.78464408271585 -35.46779831552896 0.49999999999999906
    vertex -29.78464408271585 -32.46779831552897 0.4999999999999963
    vertex -32.78464408271585 34.532201684471 0.49999999999999906
  endloop
endfacet
facet normal 0.0 0.0 1.0
  outer loop
    vertex -29.78464408271585 -32.46779831552897 0.4999999999999963
    vertex -32.78464408271585 -35.46779831552896 0.49999999999999906
    vertex 37.215355917284114 -35.46779831552896 0.49999999999999906
  endloop
endfacet
facet normal 0.0 0.0 1.0
  outer loop
    vertex -29.78464408271585 -32.46779831552897 0.4999999999999963
    vertex 37.215355917284114 -35.46779831552896 0.49999999999999906
    vertex 34.21535591728414 -32.46779831552897 0.4999999999999878
  endloop
endfacet
facet normal 0.0 0.0 1.0
  outer loop
    vertex 34.21535591728414 -32.46779831552897 0.4999999999999878
    vertex 37.215355917284114 -35.46779831552896 0.49999999999999906
    vertex 34.21535591728414 31.53220168447101 0.4999999999999963
  endloop
endfacet
facet normal 0.0 0.0 1.0
  outer loop
    vertex -32.78464408271585 34.532201684471 0.49999999999999906
    vertex -29.78464408271585 31.53220168447101 0.4999999999999963
    vertex 37.215355917284114 34.532201684471 0.49999999999999906
  endloop
endfacet
facet normal 0.0 0.0 1.0
  outer loop
    vertex -29.78464408271585 31.53220168447101 0.4999999999999963
    vertex -32.78464408271585 34.532201684471 0.49999999999999906
    vertex -29.78464408271585 -32.46779831552897 0.4999999999999963
  endloop
endfacet
facet normal 0.0 0.0 1.0
  outer loop
    vertex 37.215355917284114 34.532201684471 0.49999999999999906
    vertex -29.78464408271585 31.53220168447101 0.4999999999999963
    vertex 34.21535591728414 31.53220168447101 0.4999999999999963
  endloop
endfacet
facet normal 0.0 0.0 1.0
  outer loop
    vertex 37.215355917284114 34.532201684471 0.49999999999999906
    vertex 34.21535591728414 31.53220168447101 0.4999999999999963
    vertex 37.215355917284114 -35.46779831552896 0.49999999999999906
  endloop
endfacet
facet normal 0.32679669503655806 0.9450946619853395 0.0
  outer loop
    vertex 39.221768882199086 44.32884942817503 0.49999999999999906
    vertex 41.68896103252795 43.47573886351065 0.0
    vertex 39.221768882199086 44.32884942817503 0.0
  endloop
endfacet
facet normal 0.32679669503655806 0.9450946619853395 0.0
  outer loop
    vertex 41.68896103252795 43.47573886351065 0.0
    vertex 39.221768882199086 44.32884942817503 0.49999999999999906
    vertex 41.68896103252795 43.47573886351065 0.49999999999999906
  endloop
endfacet
facet normal -1.0 0.0 0.0
  outer loop
    vertex 34.21535591728414 31.53220168447101 4.999999999999999
    vertex 34.21535591728414 -32.46779831552897 0.4999999999999878
    vertex 34.21535591728414 -32.46779831552897 4.999999999999999
  endloop
endfacet
facet normal -1.0 0.0 0.0
  outer loop
    vertex 34.21535591728414 -32.46779831552897 0.4999999999999878
    vertex 34.21535591728414 31.53220168447101 4.999999999999999
    vertex 34.21535591728414 31.53220168447101 0.4999999999999963
  endloop
endfacet
facet normal 1.0 0.0 0.0
  outer loop
    vertex -29.78464408271585 31.53220168447101 0.4999999999999963
    vertex -29.78464408271585 -32.46779831552897 4.999999999999999
    vertex -29.78464408271585 -32.46779831552897 0.4999999999999963
  endloop
endfacet
facet normal 1.0 0.0 0.0
  outer loop
    vertex -29.78464408271585 -32.46779831552897 4.999999999999999
    vertex -29.78464408271585 31.53220168447101 0.4999999999999963
    vertex -29.78464408271585 31.53220168447101 4.999999999999999
  endloop
endfacet
facet normal -0.22950763295706283 -0.9733068613825994 -0.0
  outer loop
    vertex 36.210334668649864 -45.41716675225868 0.49999999999999906
    vertex 33.66949389909146 -44.81803160395222 0.0
    vertex 36.210334668649864 -45.41716675225868 0.0
  endloop
endfacet
facet normal -0.22950763295706283 -0.9733068613825994 -0.0
  outer loop
    vertex 33.66949389909146 -44.81803160395222 0.0
    vertex 36.210334668649864 -45.41716675225868 0.49999999999999906
    vertex 33.66949389909146 -44.81803160395222 0.49999999999999906
  endloop
endfacet
facet normal 0.0 -1.0 0.0
  outer loop
    vertex 37.215355917284114 -35.46779831552896 4.999999999999999
    vertex -32.78464408271585 -35.46779831552896 0.49999999999999906
    vertex 37.215355917284114 -35.46779831552896 0.49999999999999906
  endloop
endfacet
facet normal 0.0 -1.0 0.0
  outer loop
    vertex -32.78464408271585 -35.46779831552896 0.49999999999999906
    vertex 37.215355917284114 -35.46779831552896 4.999999999999999
    vertex -32.78464408271585 -35.46779831552896 4.999999999999999
  endloop
endfacet
facet normal 0.33820428281837506 0.9410727193385794 0.0
  outer loop
    vertex -30.659881486341263 44.303863974432105 0.49999999999999906
    vertex -28.203188713192585 43.42097362985618 0.0
    vertex -30.659881486341263 44.303863974432105 0.0
  endloop
endfacet
facet normal 0.33820428281837506 0.9410727193385794 0.0
  outer loop
    vertex -28.203188713192585 43.42097362985618 0.0
    vertex -30.659881486341263 44.303863974432105 0.49999999999999906
    vertex -28.203188713192585 43.42097362985618 0.49999999999999906
  endloop
endfacet
facet normal 6.609296443471635e-17 -6.609296443471638e-17 1.0
  outer loop
    vertex 34.21535591728414 -32.46779831552897 0.4999999999999878
    vertex -29.78464408271585 31.53220168447101 0.4999999999999963
    vertex -29.78464408271585 -32.46779831552897 0.4999999999999963
  endloop
endfacet
facet normal 6.609296443471635e-17 -6.609296443471638e-17 1.0
  outer loop
    vertex -29.78464408271585 31.53220168447101 0.4999999999999963
    vertex 34.21535591728414 -32.46779831552897 0.4999999999999878
    vertex 34.21535591728414 31.53220168447101 0.4999999999999963
  endloop
endfacet
facet normal 0.5702477939270834 0.8214727344965839 0.0
  outer loop
    vertex -28.203188713192585 43.42097362985618 0.49999999999999906
    vertex -26.05871455226394 41.93232816659244 0.0
    vertex -28.203188713192585 43.42097362985618 0.0
  endloop
endfacet
facet normal 0.5702477939270834 0.8214727344965839 0.0
  outer loop
    vertex -26.05871455226394 41.93232816659244 0.0
    vertex -28.203188713192585 43.42097362985618 0.49999999999999906
    vertex -26.05871455226394 41.93232816659244 0.49999999999999906
  endloop
endfacet
facet normal -0.9999681634719951 0.00797947632650399 0.0
  outer loop
    vertex -37.36609945223911 25.64342973908585 0.49999999999999906
    vertex -37.78464408271586 -26.807544277684535 0.0
    vertex -37.78464408271586 -26.807544277684535 0.49999999999999906
  endloop
endfacet
facet normal -0.9999681634719951 0.00797947632650399 0.0
  outer loop
    vertex -37.78464408271586 -26.807544277684535 0.0
    vertex -37.36609945223911 25.64342973908585 0.49999999999999906
    vertex -37.36609945223911 25.64342973908585 0.0
  endloop
endfacet
facet normal 0.5259454782610212 -0.8505182854570418 0.0
  outer loop
    vertex 43.53996446727326 -43.21372154580978 0.49999999999999906
    vertex 41.319666202988564 -44.586714757665064 0.0
    vertex 43.53996446727326 -43.21372154580978 0.0
  endloop
endfacet
facet normal 0.5259454782610212 -0.8505182854570418 0.0
  outer loop
    vertex 41.319666202988564 -44.586714757665064 0.0
    vertex 43.53996446727326 -43.21372154580978 0.49999999999999906
    vertex 41.319666202988564 -44.586714757665064 0.49999999999999906
  endloop
endfacet
facet normal -0.8214727344965842 0.5702477939270829 0.0
  outer loop
    vertex -40.18477056483729 41.258131214922926 0.49999999999999906
    vertex -41.673416028101016 39.11365705399428 0.0
    vertex -41.673416028101016 39.11365705399428 0.49999999999999906
  endloop
endfacet
facet normal -0.8214727344965842 0.5702477939270829 0.0
  outer loop
    vertex -41.673416028101016 39.11365705399428 0.0
    vertex -40.18477056483729 41.258131214922926 0.49999999999999906
    vertex -40.18477056483729 41.258131214922926 0.0
  endloop
endfacet
facet normal 0.9974725508515982 -0.07105286973518923 0.0
  outer loop
    vertex 47.19748887164498 35.12971459768964 0.0
    vertex 47.01200366098814 32.52578871955603 0.49999999999999906
    vertex 47.01200366098814 32.52578871955603 0.0
  endloop
endfacet
facet normal 0.9974725508515982 -0.07105286973518923 0.0
  outer loop
    vertex 47.01200366098814 32.52578871955603 0.49999999999999906
    vertex 47.19748887164498 35.12971459768964 0.0
    vertex 47.19748887164498 35.12971459768964 0.49999999999999906
  endloop
endfacet
facet normal 0.850518285457042 0.5259454782610206 0.0
  outer loop
    vertex 44.96127914756496 -29.14318976553978 0.0
    vertex 46.33427235942025 -31.363488029824502 0.49999999999999906
    vertex 46.33427235942025 -31.363488029824502 0.0
  endloop
endfacet
facet normal 0.850518285457042 0.5259454782610206 0.0
  outer loop
    vertex 46.33427235942025 -31.363488029824502 0.49999999999999906
    vertex 44.96127914756496 -29.14318976553978 0.0
    vertex 44.96127914756496 -29.14318976553978 0.49999999999999906
  endloop
endfacet
facet normal 0.6550776387420917 -0.7555615707671253 0.0
  outer loop
    vertex 44.69629525280181 27.896273214520182 0.49999999999999906
    vertex 42.723883756401136 26.186177418650022 0.0
    vertex 44.69629525280181 27.896273214520182 0.0
  endloop
endfacet
facet normal 0.6550776387420917 -0.7555615707671253 0.0
  outer loop
    vertex 42.723883756401136 26.186177418650022 0.0
    vertex 44.69629525280181 27.896273214520182 0.49999999999999906
    vertex 42.723883756401136 26.186177418650022 0.49999999999999906
  endloop
endfacet
facet normal 0.030223002451082368 -0.9995431807194934 0.0
  outer loop
    vertex 38.81966597542655 -45.33826888371071 0.49999999999999906
    vertex 36.210334668649864 -45.41716675225868 0.0
    vertex 38.81966597542655 -45.33826888371071 0.0
  endloop
endfacet
facet normal 0.030223002451082368 -0.9995431807194934 0.0
  outer loop
    vertex 36.210334668649864 -45.41716675225868 0.0
    vertex 38.81966597542655 -45.33826888371071 0.49999999999999906
    vertex 36.210334668649864 -45.41716675225868 0.49999999999999906
  endloop
endfacet
facet normal 0.5602698656282594 0.8283101337475549 0.0
  outer loop
    vertex 41.68896103252795 43.47573886351065 0.49999999999999906
    vertex 43.851284387234955 42.0131410199887 0.0
    vertex 41.68896103252795 43.47573886351065 0.0
  endloop
endfacet
facet normal 0.5602698656282594 0.8283101337475549 0.0
  outer loop
    vertex 43.851284387234955 42.0131410199887 0.0
    vertex 41.68896103252795 43.47573886351065 0.49999999999999906
    vertex 43.851284387234955 42.0131410199887 0.49999999999999906
  endloop
endfacet
facet normal -0.9045854432411805 -0.42629235962676765 -0.0
  outer loop
    vertex -42.30953316121186 31.486468924961823 0.49999999999999906
    vertex -41.196686791720204 29.125027056082654 0.0
    vertex -41.196686791720204 29.125027056082654 0.49999999999999906
  endloop
endfacet
facet normal -0.9045854432411805 -0.42629235962676765 -0.0
  outer loop
    vertex -41.196686791720204 29.125027056082654 0.0
    vertex -42.30953316121186 31.486468924961823 0.49999999999999906
    vertex -42.30953316121186 31.486468924961823 0.0
  endloop
endfacet
facet normal 0.6087614290087207 -0.7933533402912354 0.0
  outer loop
    vertex -25.713576270850368 -42.53886612739441 0.49999999999999906
    vertex -27.784644082715843 -44.12805235337334 0.0
    vertex -25.713576270850368 -42.53886612739441 0.0
  endloop
endfacet
facet normal 0.6087614290087207 -0.7933533402912354 0.0
  outer loop
    vertex -27.784644082715843 -44.12805235337334 0.0
    vertex -25.713576270850368 -42.53886612739441 0.49999999999999906
    vertex -27.784644082715843 -44.12805235337334 0.49999999999999906
  endloop
endfacet
facet normal -0.4262923596267688 0.9045854432411797 0.0
  outer loop
    vertex -38.1918187111042 42.94424439347536 0.49999999999999906
    vertex -35.83037684222502 44.057090762967015 0.0
    vertex -38.1918187111042 42.94424439347536 0.0
  endloop
endfacet
facet normal -0.4262923596267688 0.9045854432411797 0.0
  outer loop
    vertex -35.83037684222502 44.057090762967015 0.0
    vertex -38.1918187111042 42.94424439347536 0.49999999999999906
    vertex -35.83037684222502 44.057090762967015 0.49999999999999906
  endloop
endfacet
facet normal -0.3826834323650895 -0.923879532511287 -0.0
  outer loop
    vertex -35.37283453374106 -45.12705657841961 0.49999999999999906
    vertex -37.78464408271585 -44.12805235337334 0.0
    vertex -35.37283453374106 -45.12705657841961 0.0
  endloop
endfacet
facet normal -0.3826834323650895 -0.923879532511287 -0.0
  outer loop
    vertex -37.78464408271585 -44.12805235337334 0.0
    vertex -35.37283453374106 -45.12705657841961 0.49999999999999906
    vertex -37.78464408271585 -44.12805235337334 0.49999999999999906
  endloop
endfacet
facet normal 0.9733068613825997 -0.22950763295706125 0.0
  outer loop
    vertex 47.16472435401384 -36.47281956416321 0.0
    vertex 46.5655892057074 -39.01366033372158 0.49999999999999906
    vertex 46.5655892057074 -39.01366033372158 0.0
  endloop
endfacet
facet normal 0.9733068613825997 -0.22950763295706125 0.0
  outer loop
    vertex 46.5655892057074 -39.01366033372158 0.49999999999999906
    vertex 47.16472435401384 -36.47281956416321 0.0
    vertex 47.16472435401384 -36.47281956416321 0.49999999999999906
  endloop
endfacet
facet normal -0.022703840605940724 0.9997422345893667 0.0
  outer loop
    vertex -24.372601373711497 39.93937631285935 0.49999999999999906
    vertex 29.734416581766414 41.168130154421846 0.0
    vertex -24.372601373711497 39.93937631285935 0.0
  endloop
endfacet
facet normal -0.022703840605940724 0.9997422345893667 0.0
  outer loop
    vertex 29.734416581766414 41.168130154421846 0.0
    vertex -24.372601373711497 39.93937631285935 0.49999999999999906
    vertex 29.734416581766414 41.168130154421846 0.49999999999999906
  endloop
endfacet
facet normal 0.0 1.0 0.0
  outer loop
    vertex -29.78464408271585 -32.46779831552897 0.4999999999999963
    vertex 34.21535591728414 -32.46779831552897 4.999999999999999
    vertex 34.21535591728414 -32.46779831552897 0.4999999999999878
  endloop
endfacet
facet normal 0.0 1.0 0.0
  outer loop
    vertex 34.21535591728414 -32.46779831552897 4.999999999999999
    vertex -29.78464408271585 -32.46779831552897 0.4999999999999963
    vertex -29.78464408271585 -32.46779831552897 4.999999999999999
  endloop
endfacet
facet normal -0.5702477939270844 -0.821472734496583 -0.0
  outer loop
    vertex -37.36609945223911 25.64342973908585 0.49999999999999906
    vertex -39.51057361316776 27.13207520234956 0.0
    vertex -37.36609945223911 25.64342973908585 0.0
  endloop
endfacet
facet normal -0.5702477939270844 -0.821472734496583 -0.0
  outer loop
    vertex -39.51057361316776 27.13207520234956 0.0
    vertex -37.36609945223911 25.64342973908585 0.49999999999999906
    vertex -39.51057361316776 27.13207520234956 0.49999999999999906
  endloop
endfacet
facet normal 0.0 1.0 0.0
  outer loop
    vertex -32.78464408271585 34.532201684471 4.999999999999999
    vertex 37.215355917284114 34.532201684471 0.49999999999999906
    vertex -32.78464408271585 34.532201684471 0.49999999999999906
  endloop
endfacet
facet normal 0.0 1.0 0.0
  outer loop
    vertex 37.215355917284114 34.532201684471 0.49999999999999906
    vertex -32.78464408271585 34.532201684471 4.999999999999999
    vertex 37.215355917284114 34.532201684471 4.999999999999999
  endloop
endfacet
facet normal -0.4372026852233387 0.899363003482744 0.0
  outer loop
    vertex 31.706828078167092 42.878225950292006 0.49999999999999906
    vertex 34.05463664353093 44.019553984903695 0.0
    vertex 31.706828078167092 42.878225950292006 0.0
  endloop
endfacet
facet normal -0.4372026852233387 0.899363003482744 0.0
  outer loop
    vertex 34.05463664353093 44.019553984903695 0.0
    vertex 31.706828078167092 42.878225950292006 0.49999999999999906
    vertex 34.05463664353093 44.019553984903695 0.49999999999999906
  endloop
endfacet
facet normal 0.9999802463446783 0.006285453081244265 0.0
  outer loop
    vertex 42.723883756401136 26.186177418650022 0.0
    vertex 43.06041406830939 -27.35390312202706 0.49999999999999906
    vertex 43.06041406830939 -27.35390312202706 0.0
  endloop
endfacet
facet normal 0.9999802463446783 0.006285453081244265 0.0
  outer loop
    vertex 43.06041406830939 -27.35390312202706 0.49999999999999906
    vertex 42.723883756401136 26.186177418650022 0.0
    vertex 42.723883756401136 26.186177418650022 0.49999999999999906
  endloop
endfacet
facet normal 1.0 0.0 0.0
  outer loop
    vertex 37.215355917284114 34.532201684471 0.49999999999999906
    vertex 37.215355917284114 -35.46779831552896 4.999999999999999
    vertex 37.215355917284114 -35.46779831552896 0.49999999999999906
  endloop
endfacet
facet normal 1.0 0.0 0.0
  outer loop
    vertex 37.215355917284114 -35.46779831552896 4.999999999999999
    vertex 37.215355917284114 34.532201684471 0.49999999999999906
    vertex 37.215355917284114 34.532201684471 4.999999999999999
  endloop
endfacet
facet normal -0.13052619222005157 -0.9914448613738104 -0.0
  outer loop
    vertex -32.78464408271585 -45.467798315528945 0.49999999999999906
    vertex -35.37283453374106 -45.12705657841961 0.0
    vertex -32.78464408271585 -45.467798315528945 0.0
  endloop
endfacet
facet normal -0.13052619222005157 -0.9914448613738104 -0.0
  outer loop
    vertex -35.37283453374106 -45.12705657841961 0.0
    vertex -32.78464408271585 -45.467798315528945 0.49999999999999906
    vertex -35.37283453374106 -45.12705657841961 0.49999999999999906
  endloop
endfacet
endsolid voronoi cube platform
