solid Default
  facet normal 0.000000e+00 0.000000e+00 -1.000000e+00
    outer loop
      vertex -3.150000e+01 3.150000e+01 0.000000e+00
      vertex -1.806167e+01 1.050000e+01 0.000000e+00
      vertex -3.150000e+01 -3.150000e+01 0.000000e+00
    endloop
  endfacet
  facet normal 0.000000e+00 0.000000e+00 -1.000000e+00
    outer loop
      vertex -1.806167e+01 1.050000e+01 0.000000e+00
      vertex -3.150000e+01 3.150000e+01 0.000000e+00
      vertex 3.150000e+01 3.150000e+01 0.000000e+00
    endloop
  endfacet
  facet normal 0.000000e+00 0.000000e+00 -1.000000e+00
    outer loop
      vertex -1.806167e+01 1.050000e+01 0.000000e+00
      vertex 3.150000e+01 3.150000e+01 0.000000e+00
      vertex -1.406167e+01 1.050000e+01 0.000000e+00
    endloop
  endfacet
  facet normal 0.000000e+00 0.000000e+00 -1.000000e+00
    outer loop
      vertex -1.406167e+01 1.050000e+01 0.000000e+00
      vertex 3.150000e+01 3.150000e+01 0.000000e+00
      vertex -1.406167e+01 -9.500000e+00 0.000000e+00
    endloop
  endfacet
  facet normal 0.000000e+00 0.000000e+00 -1.000000e+00
    outer loop
      vertex -3.150000e+01 -3.150000e+01 0.000000e+00
      vertex -1.806167e+01 -9.500000e+00 0.000000e+00
      vertex 3.150000e+01 -3.150000e+01 0.000000e+00
    endloop
  endfacet
  facet normal 0.000000e+00 0.000000e+00 -1.000000e+00
    outer loop
      vertex -1.806167e+01 -9.500000e+00 0.000000e+00
      vertex -3.150000e+01 -3.150000e+01 0.000000e+00
      vertex -1.806167e+01 1.050000e+01 0.000000e+00
    endloop
  endfacet
  facet normal 0.000000e+00 0.000000e+00 -1.000000e+00
    outer loop
      vertex 3.150000e+01 -3.150000e+01 0.000000e+00
      vertex -1.806167e+01 -9.500000e+00 0.000000e+00
      vertex -1.406167e+01 -9.500000e+00 0.000000e+00
    endloop
  endfacet
  facet normal 0.000000e+00 0.000000e+00 -1.000000e+00
    outer loop
      vertex 3.150000e+01 -3.150000e+01 0.000000e+00
      vertex -1.406167e+01 -9.500000e+00 0.000000e+00
      vertex 3.150000e+01 3.150000e+01 0.000000e+00
    endloop
  endfacet
  facet normal 0.000000e+00 1.000000e+00 0.000000e+00
    outer loop
      vertex -3.150000e+01 3.150000e+01 3.391386e+01
      vertex 3.150000e+01 3.150000e+01 0.000000e+00
      vertex -3.150000e+01 3.150000e+01 0.000000e+00
    endloop
  endfacet
  facet normal 0.000000e+00 1.000000e+00 0.000000e+00
    outer loop
      vertex 3.150000e+01 3.150000e+01 0.000000e+00
      vertex -3.150000e+01 3.150000e+01 3.391386e+01
      vertex 3.150000e+01 3.150000e+01 3.391386e+01
    endloop
  endfacet
  facet normal 1.000000e+00 0.000000e+00 0.000000e+00
    outer loop
      vertex 3.150000e+01 3.150000e+01 0.000000e+00
      vertex 3.150000e+01 -3.150000e+01 3.391386e+01
      vertex 3.150000e+01 -3.150000e+01 0.000000e+00
    endloop
  endfacet
  facet normal 1.000000e+00 0.000000e+00 0.000000e+00
    outer loop
      vertex 3.150000e+01 -3.150000e+01 3.391386e+01
      vertex 3.150000e+01 3.150000e+01 0.000000e+00
      vertex 3.150000e+01 3.150000e+01 3.391386e+01
    endloop
  endfacet
  facet normal -0.000000e+00 -1.000000e+00 -0.000000e+00
    outer loop
      vertex 3.150000e+01 -3.150000e+01 0.000000e+00
      vertex 9.000000e+00 -3.150000e+01 5.000000e+00
      vertex -3.150000e+01 -3.150000e+01 0.000000e+00
    endloop
  endfacet
  facet normal -0.000000e+00 -1.000000e+00 -0.000000e+00
    outer loop
      vertex 9.000000e+00 -3.150000e+01 5.000000e+00
      vertex 3.150000e+01 -3.150000e+01 0.000000e+00
      vertex 3.150000e+01 -3.150000e+01 3.391386e+01
    endloop
  endfacet
  facet normal -0.000000e+00 -1.000000e+00 -0.000000e+00
    outer loop
      vertex 9.000000e+00 -3.150000e+01 5.000000e+00
      vertex 3.150000e+01 -3.150000e+01 3.391386e+01
      vertex 9.000000e+00 -3.150000e+01 3.391386e+01
    endloop
  endfacet
  facet normal -0.000000e+00 -1.000000e+00 -0.000000e+00
    outer loop
      vertex -3.150000e+01 -3.150000e+01 0.000000e+00
      vertex -2.100000e+01 -3.150000e+01 5.000000e+00
      vertex -3.150000e+01 -3.150000e+01 3.391386e+01
    endloop
  endfacet
  facet normal -0.000000e+00 -1.000000e+00 -0.000000e+00
    outer loop
      vertex -2.100000e+01 -3.150000e+01 5.000000e+00
      vertex -3.150000e+01 -3.150000e+01 0.000000e+00
      vertex 9.000000e+00 -3.150000e+01 5.000000e+00
    endloop
  endfacet
  facet normal -0.000000e+00 -1.000000e+00 -0.000000e+00
    outer loop
      vertex -3.150000e+01 -3.150000e+01 3.391386e+01
      vertex -2.100000e+01 -3.150000e+01 5.000000e+00
      vertex -2.100000e+01 -3.150000e+01 3.391386e+01
    endloop
  endfacet
  facet normal -1.000000e+00 0.000000e+00 0.000000e+00
    outer loop
      vertex -3.150000e+01 3.150000e+01 3.391386e+01
      vertex -3.150000e+01 -3.150000e+01 0.000000e+00
      vertex -3.150000e+01 -3.150000e+01 3.391386e+01
    endloop
  endfacet
  facet normal -1.000000e+00 0.000000e+00 0.000000e+00
    outer loop
      vertex -3.150000e+01 -3.150000e+01 0.000000e+00
      vertex -3.150000e+01 3.150000e+01 3.391386e+01
      vertex -3.150000e+01 3.150000e+01 0.000000e+00
    endloop
  endfacet
  facet normal 0.000000e+00 0.000000e+00 1.000000e+00
    outer loop
      vertex 2.600000e+01 -2.600000e+01 2.700000e+01
      vertex 2.100000e+01 2.600000e+01 2.700000e+01
      vertex 2.100000e+01 -2.600000e+01 2.700000e+01
    endloop
  endfacet
  facet normal 0.000000e+00 0.000000e+00 1.000000e+00
    outer loop
      vertex 2.100000e+01 2.600000e+01 2.700000e+01
      vertex 2.600000e+01 -2.600000e+01 2.700000e+01
      vertex 2.600000e+01 2.600000e+01 2.700000e+01
    endloop
  endfacet
  facet normal 0.000000e+00 0.000000e+00 1.000000e+00
    outer loop
      vertex -2.100000e+01 -2.600000e+01 2.700000e+01
      vertex -2.600000e+01 2.600000e+01 2.700000e+01
      vertex -2.600000e+01 -2.600000e+01 2.700000e+01
    endloop
  endfacet
  facet normal 0.000000e+00 0.000000e+00 1.000000e+00
    outer loop
      vertex -2.600000e+01 2.600000e+01 2.700000e+01
      vertex -2.100000e+01 -2.600000e+01 2.700000e+01
      vertex -2.100000e+01 2.600000e+01 2.700000e+01
    endloop
  endfacet
  facet normal 0.000000e+00 1.000000e+00 0.000000e+00
    outer loop
      vertex 9.000000e+00 -2.950000e+01 3.391386e+01
      vertex 2.100000e+01 -2.950000e+01 1.300000e+01
      vertex 9.000000e+00 -2.950000e+01 1.300000e+01
    endloop
  endfacet
  facet normal 0.000000e+00 1.000000e+00 0.000000e+00
    outer loop
      vertex 2.100000e+01 -2.950000e+01 1.300000e+01
      vertex 9.000000e+00 -2.950000e+01 3.391386e+01
      vertex 2.100000e+01 -2.950000e+01 3.391386e+01
    endloop
  endfacet
  facet normal 1.000000e+00 0.000000e+00 0.000000e+00
    outer loop
      vertex -2.100000e+01 -2.150000e+01 5.000000e+00
      vertex -2.100000e+01 -3.150000e+01 3.391386e+01
      vertex -2.100000e+01 -3.150000e+01 5.000000e+00
    endloop
  endfacet
  facet normal 1.000000e+00 0.000000e+00 0.000000e+00
    outer loop
      vertex -2.100000e+01 -3.150000e+01 3.391386e+01
      vertex -2.100000e+01 -2.150000e+01 5.000000e+00
      vertex -2.100000e+01 -2.600000e+01 2.700000e+01
    endloop
  endfacet
  facet normal 1.000000e+00 0.000000e+00 0.000000e+00
    outer loop
      vertex -2.100000e+01 -2.600000e+01 2.700000e+01
      vertex -2.100000e+01 -2.150000e+01 5.000000e+00
      vertex -2.100000e+01 -2.150000e+01 1.300000e+01
    endloop
  endfacet
  facet normal 1.000000e+00 0.000000e+00 0.000000e+00
    outer loop
      vertex -2.100000e+01 -2.600000e+01 2.700000e+01
      vertex -2.100000e+01 -2.150000e+01 1.300000e+01
      vertex -2.100000e+01 2.600000e+01 2.700000e+01
    endloop
  endfacet
  facet normal 1.000000e+00 0.000000e+00 0.000000e+00
    outer loop
      vertex -2.100000e+01 2.600000e+01 2.700000e+01
      vertex -2.100000e+01 -2.150000e+01 1.300000e+01
      vertex -2.100000e+01 2.950000e+01 1.300000e+01
    endloop
  endfacet
  facet normal 1.000000e+00 0.000000e+00 0.000000e+00
    outer loop
      vertex -2.100000e+01 2.600000e+01 2.700000e+01
      vertex -2.100000e+01 2.950000e+01 1.300000e+01
      vertex -2.100000e+01 2.600000e+01 3.391386e+01
    endloop
  endfacet
  facet normal 1.000000e+00 0.000000e+00 0.000000e+00
    outer loop
      vertex -2.100000e+01 2.600000e+01 3.391386e+01
      vertex -2.100000e+01 2.950000e+01 1.300000e+01
      vertex -2.100000e+01 2.950000e+01 3.391386e+01
    endloop
  endfacet
  facet normal 1.000000e+00 0.000000e+00 0.000000e+00
    outer loop
      vertex -2.100000e+01 -2.600000e+01 3.391386e+01
      vertex -2.100000e+01 -3.150000e+01 3.391386e+01
      vertex -2.100000e+01 -2.600000e+01 2.700000e+01
    endloop
  endfacet
  facet normal 0.000000e+00 -1.000000e+00 0.000000e+00
    outer loop
      vertex 2.100000e+01 2.950000e+01 3.391386e+01
      vertex -2.100000e+01 2.950000e+01 1.300000e+01
      vertex 2.100000e+01 2.950000e+01 1.300000e+01
    endloop
  endfacet
  facet normal 0.000000e+00 -1.000000e+00 0.000000e+00
    outer loop
      vertex -2.100000e+01 2.950000e+01 1.300000e+01
      vertex 2.100000e+01 2.950000e+01 3.391386e+01
      vertex -2.100000e+01 2.950000e+01 3.391386e+01
    endloop
  endfacet
  facet normal -1.000000e+00 0.000000e+00 0.000000e+00
    outer loop
      vertex 2.100000e+01 2.950000e+01 3.391386e+01
      vertex 2.100000e+01 2.600000e+01 2.700000e+01
      vertex 2.100000e+01 2.600000e+01 3.391386e+01
    endloop
  endfacet
  facet normal -1.000000e+00 0.000000e+00 0.000000e+00
    outer loop
      vertex 2.100000e+01 -2.600000e+01 3.391386e+01
      vertex 2.100000e+01 -2.950000e+01 1.300000e+01
      vertex 2.100000e+01 -2.950000e+01 3.391386e+01
    endloop
  endfacet
  facet normal -1.000000e+00 0.000000e+00 0.000000e+00
    outer loop
      vertex 2.100000e+01 -2.950000e+01 1.300000e+01
      vertex 2.100000e+01 -2.600000e+01 3.391386e+01
      vertex 2.100000e+01 -2.600000e+01 2.700000e+01
    endloop
  endfacet
  facet normal -1.000000e+00 0.000000e+00 0.000000e+00
    outer loop
      vertex 2.100000e+01 -2.950000e+01 1.300000e+01
      vertex 2.100000e+01 -2.600000e+01 2.700000e+01
      vertex 2.100000e+01 2.950000e+01 1.300000e+01
    endloop
  endfacet
  facet normal -1.000000e+00 0.000000e+00 0.000000e+00
    outer loop
      vertex 2.100000e+01 2.950000e+01 1.300000e+01
      vertex 2.100000e+01 -2.600000e+01 2.700000e+01
      vertex 2.100000e+01 2.600000e+01 2.700000e+01
    endloop
  endfacet
  facet normal -1.000000e+00 0.000000e+00 0.000000e+00
    outer loop
      vertex 2.100000e+01 2.950000e+01 1.300000e+01
      vertex 2.100000e+01 2.600000e+01 2.700000e+01
      vertex 2.100000e+01 2.950000e+01 3.391386e+01
    endloop
  endfacet
  facet normal -1.000000e+00 -0.000000e+00 -0.000000e+00
    outer loop
      vertex 2.600000e+01 2.600000e+01 3.391386e+01
      vertex 2.600000e+01 -2.600000e+01 2.700000e+01
      vertex 2.600000e+01 -2.600000e+01 3.391386e+01
    endloop
  endfacet
  facet normal -1.000000e+00 -0.000000e+00 -0.000000e+00
    outer loop
      vertex 2.600000e+01 -2.600000e+01 2.700000e+01
      vertex 2.600000e+01 2.600000e+01 3.391386e+01
      vertex 2.600000e+01 2.600000e+01 2.700000e+01
    endloop
  endfacet
  facet normal 0.000000e+00 1.000000e+00 0.000000e+00
    outer loop
      vertex 2.100000e+01 -2.600000e+01 3.391386e+01
      vertex 2.600000e+01 -2.600000e+01 2.700000e+01
      vertex 2.100000e+01 -2.600000e+01 2.700000e+01
    endloop
  endfacet
  facet normal 0.000000e+00 1.000000e+00 0.000000e+00
    outer loop
      vertex 2.600000e+01 -2.600000e+01 2.700000e+01
      vertex 2.100000e+01 -2.600000e+01 3.391386e+01
      vertex 2.600000e+01 -2.600000e+01 3.391386e+01
    endloop
  endfacet
  facet normal 7.049916e-17 1.000000e+00 0.000000e+00
    outer loop
      vertex -2.600000e+01 -2.600000e+01 3.391386e+01
      vertex -2.100000e+01 -2.600000e+01 2.700000e+01
      vertex -2.600000e+01 -2.600000e+01 2.700000e+01
    endloop
  endfacet
  facet normal 7.049916e-17 1.000000e+00 0.000000e+00
    outer loop
      vertex -2.100000e+01 -2.600000e+01 2.700000e+01
      vertex -2.600000e+01 -2.600000e+01 3.391386e+01
      vertex -2.100000e+01 -2.600000e+01 3.391386e+01
    endloop
  endfacet
  facet normal 1.000000e+00 0.000000e+00 0.000000e+00
    outer loop
      vertex -2.600000e+01 2.600000e+01 2.700000e+01
      vertex -2.600000e+01 -2.600000e+01 3.391386e+01
      vertex -2.600000e+01 -2.600000e+01 2.700000e+01
    endloop
  endfacet
  facet normal 1.000000e+00 0.000000e+00 0.000000e+00
    outer loop
      vertex -2.600000e+01 -2.600000e+01 3.391386e+01
      vertex -2.600000e+01 2.600000e+01 2.700000e+01
      vertex -2.600000e+01 2.600000e+01 3.391386e+01
    endloop
  endfacet
  facet normal 0.000000e+00 -1.000000e+00 0.000000e+00
    outer loop
      vertex -2.100000e+01 2.600000e+01 3.391386e+01
      vertex -2.600000e+01 2.600000e+01 2.700000e+01
      vertex -2.100000e+01 2.600000e+01 2.700000e+01
    endloop
  endfacet
  facet normal 0.000000e+00 -1.000000e+00 0.000000e+00
    outer loop
      vertex -2.600000e+01 2.600000e+01 2.700000e+01
      vertex -2.100000e+01 2.600000e+01 3.391386e+01
      vertex -2.600000e+01 2.600000e+01 3.391386e+01
    endloop
  endfacet
  facet normal 0.000000e+00 -1.000000e+00 0.000000e+00
    outer loop
      vertex 2.600000e+01 2.600000e+01 3.391386e+01
      vertex 2.100000e+01 2.600000e+01 2.700000e+01
      vertex 2.600000e+01 2.600000e+01 2.700000e+01
    endloop
  endfacet
  facet normal 0.000000e+00 -1.000000e+00 0.000000e+00
    outer loop
      vertex 2.100000e+01 2.600000e+01 2.700000e+01
      vertex 2.600000e+01 2.600000e+01 3.391386e+01
      vertex 2.100000e+01 2.600000e+01 3.391386e+01
    endloop
  endfacet
  facet normal 0.000000e+00 0.000000e+00 1.000000e+00
    outer loop
      vertex -3.150000e+01 -3.150000e+01 3.391386e+01
      vertex -2.600000e+01 -2.600000e+01 3.391386e+01
      vertex -3.150000e+01 3.150000e+01 3.391386e+01
    endloop
  endfacet
  facet normal 0.000000e+00 0.000000e+00 1.000000e+00
    outer loop
      vertex -2.600000e+01 -2.600000e+01 3.391386e+01
      vertex -3.150000e+01 -3.150000e+01 3.391386e+01
      vertex -2.100000e+01 -3.150000e+01 3.391386e+01
    endloop
  endfacet
  facet normal 0.000000e+00 0.000000e+00 1.000000e+00
    outer loop
      vertex -2.600000e+01 -2.600000e+01 3.391386e+01
      vertex -2.100000e+01 -3.150000e+01 3.391386e+01
      vertex -2.100000e+01 -2.600000e+01 3.391386e+01
    endloop
  endfacet
  facet normal 0.000000e+00 0.000000e+00 1.000000e+00
    outer loop
      vertex 2.600000e+01 2.600000e+01 3.391386e+01
      vertex 2.100000e+01 2.950000e+01 3.391386e+01
      vertex 2.100000e+01 2.600000e+01 3.391386e+01
    endloop
  endfacet
  facet normal 0.000000e+00 0.000000e+00 1.000000e+00
    outer loop
      vertex 3.150000e+01 -3.150000e+01 3.391386e+01
      vertex 9.000000e+00 -2.950000e+01 3.391386e+01
      vertex 9.000000e+00 -3.150000e+01 3.391386e+01
    endloop
  endfacet
  facet normal 0.000000e+00 0.000000e+00 1.000000e+00
    outer loop
      vertex 9.000000e+00 -2.950000e+01 3.391386e+01
      vertex 3.150000e+01 -3.150000e+01 3.391386e+01
      vertex 2.100000e+01 -2.950000e+01 3.391386e+01
    endloop
  endfacet
  facet normal 0.000000e+00 0.000000e+00 1.000000e+00
    outer loop
      vertex 2.100000e+01 -2.950000e+01 3.391386e+01
      vertex 3.150000e+01 -3.150000e+01 3.391386e+01
      vertex 2.100000e+01 -2.600000e+01 3.391386e+01
    endloop
  endfacet
  facet normal 0.000000e+00 0.000000e+00 1.000000e+00
    outer loop
      vertex 2.100000e+01 -2.600000e+01 3.391386e+01
      vertex 3.150000e+01 -3.150000e+01 3.391386e+01
      vertex 2.600000e+01 -2.600000e+01 3.391386e+01
    endloop
  endfacet
  facet normal 0.000000e+00 0.000000e+00 1.000000e+00
    outer loop
      vertex 2.600000e+01 -2.600000e+01 3.391386e+01
      vertex 3.150000e+01 -3.150000e+01 3.391386e+01
      vertex 2.600000e+01 2.600000e+01 3.391386e+01
    endloop
  endfacet
  facet normal 0.000000e+00 0.000000e+00 1.000000e+00
    outer loop
      vertex -3.150000e+01 3.150000e+01 3.391386e+01
      vertex -2.100000e+01 2.950000e+01 3.391386e+01
      vertex 3.150000e+01 3.150000e+01 3.391386e+01
    endloop
  endfacet
  facet normal 0.000000e+00 0.000000e+00 1.000000e+00
    outer loop
      vertex -2.100000e+01 2.950000e+01 3.391386e+01
      vertex -3.150000e+01 3.150000e+01 3.391386e+01
      vertex -2.600000e+01 2.600000e+01 3.391386e+01
    endloop
  endfacet
  facet normal 0.000000e+00 0.000000e+00 1.000000e+00
    outer loop
      vertex -2.600000e+01 2.600000e+01 3.391386e+01
      vertex -3.150000e+01 3.150000e+01 3.391386e+01
      vertex -2.600000e+01 -2.600000e+01 3.391386e+01
    endloop
  endfacet
  facet normal 0.000000e+00 0.000000e+00 1.000000e+00
    outer loop
      vertex -2.100000e+01 2.950000e+01 3.391386e+01
      vertex -2.600000e+01 2.600000e+01 3.391386e+01
      vertex -2.100000e+01 2.600000e+01 3.391386e+01
    endloop
  endfacet
  facet normal 0.000000e+00 0.000000e+00 1.000000e+00
    outer loop
      vertex 3.150000e+01 3.150000e+01 3.391386e+01
      vertex -2.100000e+01 2.950000e+01 3.391386e+01
      vertex 2.100000e+01 2.950000e+01 3.391386e+01
    endloop
  endfacet
  facet normal 0.000000e+00 0.000000e+00 1.000000e+00
    outer loop
      vertex 3.150000e+01 3.150000e+01 3.391386e+01
      vertex 2.100000e+01 2.950000e+01 3.391386e+01
      vertex 2.600000e+01 2.600000e+01 3.391386e+01
    endloop
  endfacet
  facet normal 0.000000e+00 0.000000e+00 1.000000e+00
    outer loop
      vertex 3.150000e+01 3.150000e+01 3.391386e+01
      vertex 2.600000e+01 2.600000e+01 3.391386e+01
      vertex 3.150000e+01 -3.150000e+01 3.391386e+01
    endloop
  endfacet
  facet normal -1.000000e+00 0.000000e+00 0.000000e+00
    outer loop
      vertex 9.000000e+00 -2.950000e+01 3.391386e+01
      vertex 9.000000e+00 -3.150000e+01 5.000000e+00
      vertex 9.000000e+00 -3.150000e+01 3.391386e+01
    endloop
  endfacet
  facet normal -1.000000e+00 0.000000e+00 0.000000e+00
    outer loop
      vertex 9.000000e+00 -3.150000e+01 5.000000e+00
      vertex 9.000000e+00 -2.950000e+01 3.391386e+01
      vertex 9.000000e+00 -2.950000e+01 5.000000e+00
    endloop
  endfacet
  facet normal -1.000000e+00 0.000000e+00 0.000000e+00
    outer loop
      vertex 9.000000e+00 -2.950000e+01 5.000000e+00
      vertex 9.000000e+00 -2.950000e+01 3.391386e+01
      vertex 9.000000e+00 -2.950000e+01 1.300000e+01
    endloop
  endfacet
  facet normal 0.000000e+00 0.000000e+00 1.000000e+00
    outer loop
      vertex -2.100000e+01 -2.150000e+01 1.300000e+01
      vertex -1.806167e+01 -9.500000e+00 1.300000e+01
      vertex -2.100000e+01 2.950000e+01 1.300000e+01
    endloop
  endfacet
  facet normal 0.000000e+00 0.000000e+00 1.000000e+00
    outer loop
      vertex -1.806167e+01 -9.500000e+00 1.300000e+01
      vertex -2.100000e+01 -2.150000e+01 1.300000e+01
      vertex 9.000000e+00 -2.150000e+01 1.300000e+01
    endloop
  endfacet
  facet normal 0.000000e+00 0.000000e+00 1.000000e+00
    outer loop
      vertex -1.806167e+01 -9.500000e+00 1.300000e+01
      vertex 9.000000e+00 -2.150000e+01 1.300000e+01
      vertex -1.406167e+01 -9.500000e+00 1.300000e+01
    endloop
  endfacet
  facet normal 0.000000e+00 0.000000e+00 1.000000e+00
    outer loop
      vertex -1.406167e+01 -9.500000e+00 1.300000e+01
      vertex 9.000000e+00 -2.150000e+01 1.300000e+01
      vertex -1.406167e+01 1.050000e+01 1.300000e+01
    endloop
  endfacet
  facet normal 0.000000e+00 0.000000e+00 1.000000e+00
    outer loop
      vertex 2.100000e+01 -2.950000e+01 1.300000e+01
      vertex 9.000000e+00 -2.150000e+01 1.300000e+01
      vertex 9.000000e+00 -2.950000e+01 1.300000e+01
    endloop
  endfacet
  facet normal 0.000000e+00 0.000000e+00 1.000000e+00
    outer loop
      vertex -2.100000e+01 2.950000e+01 1.300000e+01
      vertex -1.806167e+01 1.050000e+01 1.300000e+01
      vertex 2.100000e+01 2.950000e+01 1.300000e+01
    endloop
  endfacet
  facet normal 0.000000e+00 0.000000e+00 1.000000e+00
    outer loop
      vertex -1.806167e+01 1.050000e+01 1.300000e+01
      vertex -2.100000e+01 2.950000e+01 1.300000e+01
      vertex -1.806167e+01 -9.500000e+00 1.300000e+01
    endloop
  endfacet
  facet normal 0.000000e+00 0.000000e+00 1.000000e+00
    outer loop
      vertex 2.100000e+01 2.950000e+01 1.300000e+01
      vertex -1.806167e+01 1.050000e+01 1.300000e+01
      vertex -1.406167e+01 1.050000e+01 1.300000e+01
    endloop
  endfacet
  facet normal 0.000000e+00 0.000000e+00 1.000000e+00
    outer loop
      vertex 2.100000e+01 2.950000e+01 1.300000e+01
      vertex -1.406167e+01 1.050000e+01 1.300000e+01
      vertex 9.000000e+00 -2.150000e+01 1.300000e+01
    endloop
  endfacet
  facet normal 0.000000e+00 0.000000e+00 1.000000e+00
    outer loop
      vertex 2.100000e+01 2.950000e+01 1.300000e+01
      vertex 9.000000e+00 -2.150000e+01 1.300000e+01
      vertex 2.100000e+01 -2.950000e+01 1.300000e+01
    endloop
  endfacet
  facet normal 0.000000e+00 0.000000e+00 1.000000e+00
    outer loop
      vertex 9.000000e+00 -3.150000e+01 5.000000e+00
      vertex -2.100000e+01 -2.150000e+01 5.000000e+00
      vertex -2.100000e+01 -3.150000e+01 5.000000e+00
    endloop
  endfacet
  facet normal 0.000000e+00 0.000000e+00 1.000000e+00
    outer loop
      vertex -2.100000e+01 -2.150000e+01 5.000000e+00
      vertex 9.000000e+00 -3.150000e+01 5.000000e+00
      vertex 9.000000e+00 -2.150000e+01 5.000000e+00
    endloop
  endfacet
  facet normal 0.000000e+00 0.000000e+00 1.000000e+00
    outer loop
      vertex 9.000000e+00 -2.150000e+01 5.000000e+00
      vertex 9.000000e+00 -3.150000e+01 5.000000e+00
      vertex 9.000000e+00 -2.950000e+01 5.000000e+00
    endloop
  endfacet
  facet normal -0.000000e+00 -1.000000e+00 -0.000000e+00
    outer loop
      vertex 9.000000e+00 -2.150000e+01 1.300000e+01
      vertex -2.100000e+01 -2.150000e+01 5.000000e+00
      vertex 9.000000e+00 -2.150000e+01 5.000000e+00
    endloop
  endfacet
  facet normal -0.000000e+00 -1.000000e+00 -0.000000e+00
    outer loop
      vertex -2.100000e+01 -2.150000e+01 5.000000e+00
      vertex 9.000000e+00 -2.150000e+01 1.300000e+01
      vertex -2.100000e+01 -2.150000e+01 1.300000e+01
    endloop
  endfacet
  facet normal -1.000000e+00 0.000000e+00 0.000000e+00
    outer loop
      vertex 9.000000e+00 -2.150000e+01 1.300000e+01
      vertex 9.000000e+00 -2.950000e+01 5.000000e+00
      vertex 9.000000e+00 -2.950000e+01 1.300000e+01
    endloop
  endfacet
  facet normal -1.000000e+00 0.000000e+00 0.000000e+00
    outer loop
      vertex 9.000000e+00 -2.950000e+01 5.000000e+00
      vertex 9.000000e+00 -2.150000e+01 1.300000e+01
      vertex 9.000000e+00 -2.150000e+01 5.000000e+00
    endloop
  endfacet
  facet normal -0.000000e+00 -1.000000e+00 -0.000000e+00
    outer loop
      vertex -1.406167e+01 1.050000e+01 1.300000e+01
      vertex -1.806167e+01 1.050000e+01 0.000000e+00
      vertex -1.406167e+01 1.050000e+01 0.000000e+00
    endloop
  endfacet
  facet normal -0.000000e+00 -1.000000e+00 -0.000000e+00
    outer loop
      vertex -1.806167e+01 1.050000e+01 0.000000e+00
      vertex -1.406167e+01 1.050000e+01 1.300000e+01
      vertex -1.806167e+01 1.050000e+01 1.300000e+01
    endloop
  endfacet
  facet normal 1.000000e+00 0.000000e+00 0.000000e+00
    outer loop
      vertex -1.806167e+01 1.050000e+01 0.000000e+00
      vertex -1.806167e+01 -9.500000e+00 1.300000e+01
      vertex -1.806167e+01 -9.500000e+00 0.000000e+00
    endloop
  endfacet
  facet normal 1.000000e+00 0.000000e+00 0.000000e+00
    outer loop
      vertex -1.806167e+01 -9.500000e+00 1.300000e+01
      vertex -1.806167e+01 1.050000e+01 0.000000e+00
      vertex -1.806167e+01 1.050000e+01 1.300000e+01
    endloop
  endfacet
  facet normal 0.000000e+00 1.000000e+00 0.000000e+00
    outer loop
      vertex -1.806167e+01 -9.500000e+00 1.300000e+01
      vertex -1.406167e+01 -9.500000e+00 0.000000e+00
      vertex -1.806167e+01 -9.500000e+00 0.000000e+00
    endloop
  endfacet
  facet normal 0.000000e+00 1.000000e+00 0.000000e+00
    outer loop
      vertex -1.406167e+01 -9.500000e+00 0.000000e+00
      vertex -1.806167e+01 -9.500000e+00 1.300000e+01
      vertex -1.406167e+01 -9.500000e+00 1.300000e+01
    endloop
  endfacet
  facet normal -1.000000e+00 0.000000e+00 0.000000e+00
    outer loop
      vertex -1.406167e+01 1.050000e+01 1.300000e+01
      vertex -1.406167e+01 -9.500000e+00 0.000000e+00
      vertex -1.406167e+01 -9.500000e+00 1.300000e+01
    endloop
  endfacet
  facet normal -1.000000e+00 0.000000e+00 0.000000e+00
    outer loop
      vertex -1.406167e+01 -9.500000e+00 0.000000e+00
      vertex -1.406167e+01 1.050000e+01 1.300000e+01
      vertex -1.406167e+01 1.050000e+01 0.000000e+00
    endloop
  endfacet
endsolid Default
